<svg width="20" height="17" viewBox="0 0 20 17" fill="none" xmlns="http://www.w3.org/2000/svg">
<path d="M11.5916 16.21C11.6065 16.225 12.0646 16.3398 12.6095 16.465C13.1544 16.5903 13.6061 16.6736 13.6134 16.6503C13.6206 16.627 13.677 16.2488 13.7386 15.8099C13.8625 14.9284 14.1623 13.8992 14.4827 13.2555C15.4814 11.2495 17.2733 9.92122 19.4466 9.57599L20 9.48805V8.60189V7.71566L19.4984 7.6315C16.2121 7.08016 14.0696 4.62296 13.6688 0.945747C13.6426 0.705628 13.6114 0.509232 13.5993 0.509232C13.4885 0.509232 11.652 0.951822 11.6173 0.986883C11.5922 1.01224 11.6108 1.23734 11.6588 1.48703C12.1903 4.25188 13.7119 6.50172 15.6865 7.44243L16.1601 7.6681L6.42002 7.68577L0.260986 7.69698V9.49044L6.43586 9.50167L16.153 9.51941L15.555 9.82239C14.0037 10.6083 12.7755 12.15 12.0522 14.2194C11.8461 14.8089 11.5351 16.153 11.5916 16.21Z" fill="white"/>
</svg>
