<svg width="830" height="836" viewBox="0 0 830 836" fill="none" xmlns="http://www.w3.org/2000/svg">
<path d="M563.385 846.212C564.578 856.371 561.392 858.964 538.17 864.499C529.075 866.667 522.004 861.92 520.127 854.287C508.826 808.361 501.423 631.989 322.618 522.211C322.521 522.15 290.809 503.326 290.712 503.269C267.213 489.452 166.144 557.903 143.985 572.579C130.437 581.555 52.4101 643.204 27.847 605.226C10.8764 578.991 46.9167 527.68 62.6663 497.956C114.757 399.643 97.9527 384.015 141.151 320.551C159.097 294.189 195.997 312.405 217.203 328.688C309.689 399.7 292.21 449.686 372.175 522.956C407.743 555.546 467.921 614.909 494.565 657.206C544.385 736.307 566.664 845.797 563.381 846.207L563.385 846.212ZM53.3072 610.609C89.2964 612.717 130.446 570.312 207.34 526.03C255.699 498.183 272.207 500.295 277.219 496.122C274.112 492.936 259.158 487.34 232.093 464.428C199.854 437.137 138.127 373.323 139.685 332.728C140.124 321.296 113.943 384.18 111.293 394.259C81.6112 507.314 15.8057 561.279 31.3705 599.286C36.0223 610.642 43.8093 610.053 53.3072 610.609ZM166.32 312.367C160.711 312.985 157.89 312.796 152.309 316.869C139.149 326.482 146.205 349.417 154.066 363.852C165.441 384.727 189.126 414.243 205.541 430.763C300.802 526.648 318.461 483.771 426.642 605.589C429.943 609.304 445.536 628.453 462.983 658.295C466.312 663.99 466.034 655.245 478.922 651.303C484.101 649.719 483.754 649.055 482.76 647.57C432.445 572.754 355.204 527.708 317.735 465.131C291.896 421.976 238.964 321.862 166.32 312.367ZM486.556 654.514C478.039 655.339 474.349 658.323 468.434 664.532C466.899 666.144 467.583 666.328 473.262 677.26C474.797 680.216 475.819 667.436 492.517 664.532C494.246 664.23 493.575 663.829 488.452 655.697C487.939 654.877 487.291 654.292 486.556 654.514Z" fill="#3FA34D"/>
<path d="M181.228 422.787C171.36 420.467 167.786 418.237 168.918 420.019C183.165 442.389 183.248 442.12 182.227 443.214C179.651 445.962 159.989 416.689 159.925 416.59C158.838 414.983 120.444 398.662 121.748 395.734C122.354 394.376 123.663 395.574 124.472 395.861C164.183 409.938 156.332 417.033 136.948 376.707C135.579 373.86 136.393 371.149 138.432 374.256C167.194 418.063 158.38 408.717 178.953 418.779C183.905 421.203 182.791 421.74 181.228 422.787Z" fill="#3FA34D"/>
<path d="M39.6888 580.749C55.2812 583.257 53.0112 584.992 44.4937 571.306C40.6326 565.102 40.3223 556.814 42.4817 559.921C61.4636 587.278 57.8573 583.936 67.1979 585.44C81.0101 587.66 81.9395 587.915 83.4238 587.589C83.914 587.481 84.6261 588.198 83.9047 588.825C79.8859 592.299 68.1644 589.8 66.1617 590.517C66.9801 592.879 76.5427 597.947 75.6087 600.158C74.9012 601.831 72.9225 601.341 71.2995 600.606C64.8073 597.659 63.1838 595.283 57.4175 589.588C55.3459 587.547 35.0837 586.859 35.6617 582.635C36.0408 579.867 39.5968 581.47 39.6846 580.744L39.6888 580.749Z" fill="#3FA34D"/>
<path d="M290.097 433.314L290.065 433.252C219.432 312.957 138.196 298.54 157.529 345.184C166.07 365.785 166.112 370.929 193.787 404.532C210.531 424.861 233.739 446.231 255.879 461.694C265.608 468.492 292.784 486.307 302.453 479.292C309.259 474.352 305.102 458.879 290.097 433.314ZM161.733 328.061C165.4 320.688 198.744 329.961 238.09 370.839C275.36 409.548 302.684 462.632 301.288 470.505C301.181 471.419 301.158 473.909 298.777 474.96C287.633 479.891 243.075 446.005 228.098 433.116C191.484 401.586 152.891 345.806 161.733 328.061Z" fill="#3FA34D"/>
<path d="M202.674 361.373C204.783 384.02 200.575 377.717 216.898 387.127C238.566 399.625 229.253 397.494 229.471 377.354C229.503 374.375 232.194 374.309 232.86 376.845C239.949 403.901 228.583 393.336 247.532 405.739C252.096 408.728 252.439 409.016 252.827 409.624C253.317 410.397 252.457 411.208 250.395 410.142C233.734 401.539 236.523 402.175 236.777 406.39C237.665 421.221 236.74 406.39 237.785 421.212C237.882 422.574 237.457 421.815 254.381 431.881C260.226 435.355 262.316 437.377 262.135 435.327C261.756 430.933 260.609 419.251 260.785 416.582C260.91 414.701 263.319 414.013 264.008 415.847C265.673 420.269 266.265 430.061 266.214 434.422C266.135 441.554 264.42 437.283 286.379 453.387C288.372 454.849 286.888 456.235 285.247 455.339C278.5 451.666 277.159 450.733 267.934 445.312C264.868 443.506 268.248 455.989 265.326 456.088C261.779 456.211 264.438 443.152 260.697 441.088C240.656 430.037 238.136 426.775 237.947 428.986C237.642 432.47 238.377 433.149 237.027 433.766C236.203 434.143 235.699 434.95 234.488 427.053C233.998 423.876 221.901 420.203 215.797 415.856C214.803 415.149 211.307 408.417 232.356 419.185C234.576 420.321 232.749 418.407 231.898 401.284C231.82 399.7 205.842 385.977 205.227 385.666C203.724 384.911 205.782 403.373 204.848 403.505C202.697 403.802 202.364 401.265 200.658 385.576C199.974 379.301 178.791 374.917 180.289 370.707C181.954 366.026 199.849 379.523 199.659 376.345C198.517 356.932 197.861 356.352 195.733 355.819C195.609 355.786 173.949 345.25 172.502 344.543C171.309 343.963 168.271 342.539 168.622 341.266C169.469 338.226 176.076 341.785 196.436 351.294C198.545 352.279 195.303 345.33 197.939 343.864C199.405 343.048 200.395 345.127 200.635 346.146C202.119 352.35 201.19 353.698 203.978 355.159C231.408 369.533 230.766 369.731 230.16 371.603C229.711 372.998 204.205 359.586 203.335 359.553C202.466 359.52 202.67 360.67 202.67 361.378L202.674 361.373Z" fill="#3FA34D"/>
<path d="M200.26 599.752C198.184 624.196 198.503 673.366 199.312 679.839C200.223 687.141 205.985 664.084 205.592 603.316C205.532 593.944 200.593 595.835 200.26 599.752Z" fill="#3FA34D"/>
<path d="M290.569 613.627C279.716 582.899 277.917 573.272 273.677 575.144C271.938 575.912 272.29 578.392 272.886 580.221C294.767 647.711 312.043 674.413 290.569 613.627Z" fill="#3FA34D"/>
<path d="M31.3287 287.618C30.1357 289.598 40.022 300.276 41.5063 301.822C88.8708 351.082 81.9855 332.677 79.9186 330.735C74.9939 326.105 37.118 291.064 31.3241 287.618H31.3287Z" fill="#3FA34D"/>
<path d="M125.836 286.364C127.357 285.308 127.08 284.233 125.67 280.278C119.621 263.301 102.147 210.789 105.115 228.595C106.706 238.136 118.146 291.696 125.836 286.364Z" fill="#3FA34D"/>
<path d="M58.1762 401.52C57.5612 401.072 -3.32403 385.067 0.772913 388.122C9.74826 394.826 48.5349 407.277 57.2005 405.711C58.9576 405.395 59.9842 402.826 58.1762 401.52Z" fill="#3FA34D"/>
<path d="M139.209 604.792C132.009 604.792 87.9372 715.743 140.069 611.496C141.623 608.389 142.631 604.792 139.209 604.792Z" fill="#3FA34D"/>
<path d="M814.94 5.2929L814.88 5.24104C763.867 -47.5685 676.462 23.1507 710.394 88.0008C722.43 111.002 744.7 123.735 764.112 122.981C812.868 124.914 864.357 56.5469 814.94 5.2929ZM805.798 82.9659C774.696 119.756 718.634 115.174 708.359 70.4682C699.712 32.7726 735.479 -10.877 776.546 -8.84513C821.811 -6.57774 836.312 46.859 805.802 82.9659H805.798Z" fill="#3FA34D"/>
<path d="M703.805 -31.1159C661.448 -31.1159 606.787 5.50979 631.405 9.9931C636.219 10.8747 646.952 9.1068 651.626 8.39494C647.146 11.431 634.633 17.9697 629.463 26.4225C619.956 41.9844 642.614 38.0432 659.654 30.7502C660.87 30.2269 660.667 30.2929 660.324 30.6465C656.81 34.3236 653.254 39.005 656.583 42.8943C658.012 44.5631 660.389 45.4918 662.479 45.2184C668.856 44.3934 670.146 43.8748 674.409 42.1541C674.59 42.0834 678.779 40.358 678.95 40.4428C679.639 40.7964 679.052 44.9073 683.565 46.0528C689.156 47.4719 704.133 41.3951 701.761 38.1658C700.387 36.2707 688.836 44.2708 684.004 41.6167C682.659 40.8812 683.408 40.0563 684.504 38.0715C685.757 35.7804 683.801 34.2718 681.96 35.0685C675.524 37.8169 656.861 45.0487 659.663 38.3544C663.39 29.4585 679.584 23.7589 677.494 20.2184C675.302 16.5036 651.081 34.3519 633.796 33.0508C627.017 32.5416 637.403 22.8396 642.947 18.889C657.786 8.30537 670.123 4.13792 672.097 2.60106C673.415 1.57805 673.004 -0.472673 671.001 -0.882818C670.201 -1.06196 640.556 8.83337 630.24 5.50978C624.183 3.57692 653.397 -19.9288 693.909 -25.586C740.099 -32.0352 728.964 -2.48568 734.952 -3.79626C738.772 -4.69198 739.165 -31.1112 703.814 -31.1112L703.805 -31.1159Z" fill="#3FA34D"/>
<path d="M846.361 57.9362L846.268 57.9173C838.902 56.8566 836.391 63.8055 841.755 62.5468C846.042 61.5474 850.906 62.9192 855.082 66.3135C868.603 77.3026 866.693 99.2948 867.151 100.139C867.534 102.298 866.869 137.575 852.095 163.589C851.997 163.763 851.891 163.82 851.891 163.82C851.591 163.791 850.795 162.707 849.986 160.388C844.992 145.896 848.65 126.289 845.612 125.143C841.422 123.541 840.164 144.359 829.899 155.263C825.867 153.142 825.76 136.241 825.945 131.574C826.056 128.773 826.144 126.562 824.128 126.072C822.024 125.572 821.289 126.996 819.518 130.456C816.3 136.708 812.364 136.151 813.807 128.825C817.761 108.738 819.749 109.294 817.738 107.446C812.438 102.59 800.758 155.032 821.196 136.01C821.867 140.762 821.779 159.195 829.483 160.072C835.48 160.746 839.966 148.239 842.384 141.917C843.341 139.399 843.115 139.63 843.17 140.936C846.689 231.616 903.015 66.2192 846.351 57.9268L846.361 57.9362Z" fill="#3FA34D"/>
<path d="M700.771 215.513C698.529 213.161 695.676 212.519 694.765 212.769C693.706 212.873 693.664 214.424 694.339 214.891C696.448 216.338 701.211 223.82 697.997 223.513C692.887 223.004 690.284 223.084 691.62 228.6C694.663 235.954 694.626 239.16 693.576 240.947C691.042 245.251 675.64 241.201 673.23 230.212C672.828 228.388 671.959 227.553 670.419 227.516C666.821 227.313 665.018 236.76 654.933 236.02C645.865 235.351 643.891 224.668 650.323 217.526C655.085 212.246 662.128 211.18 655.687 206.659C650.554 203.058 647.599 201.648 645.736 197.193C643.914 192.809 648.972 188.142 654.443 191.866C659.446 195.279 660.264 198.626 661.337 199.88C662.738 201.53 664.482 199.772 664.357 197.801C664.209 195.439 660.773 190.079 655.941 187.387C645.38 181.523 630.573 194.624 650.762 209.134C651.308 209.526 651.372 209.681 651.372 209.681C651.238 210.233 648.602 211.303 645.611 215.565C633.69 232.55 651.095 250.889 669.101 235.11C669.194 235.03 669.351 234.893 669.448 234.823C669.494 234.879 669.563 234.992 669.674 235.205C678.525 252.855 704.165 251.299 698.691 233.852C698.085 231.914 697.026 228.779 696.957 228.425C700.716 228.062 703.893 228.152 704.064 223.848C704.175 220.958 702.917 217.766 700.771 215.513Z" fill="#3FA34D"/>
<path d="M718.629 121.118C711.466 129.057 676.892 182.767 669.313 206.079C669.276 206.192 669.281 206.315 669.327 206.423C669.582 206.998 669.771 207.588 670.257 207.592C670.71 207.592 670.881 207.215 671.431 205.99C680.286 186.326 720.803 123.97 721.279 123.154C722.564 120.948 720.058 119.543 718.629 121.118Z" fill="#3FA34D"/>
<path d="M725.052 133.493C722.884 135.686 680.62 199.178 685.442 199.762C687.232 199.979 725.894 138.099 727.434 135.478C728.567 133.545 726.324 132.197 725.052 133.493Z" fill="#3FA34D"/>
<path d="M857.301 87.2851C857.657 78.1017 853.431 76.7911 853.047 79.9874C852.848 81.6233 854.869 92.452 849.26 97.5906C844.723 101.758 843.193 94.5782 840.252 95.1769C839.235 95.3796 838.347 96.4922 837.385 98.7786C836.275 101.414 834.019 104.294 832.174 104.558C831.258 104.676 830.907 104.271 830.208 103.601C827.702 100.381 828.65 97.7415 828.289 95.7709C828.239 95.4833 827.947 95.3089 827.665 95.4173C821.117 98.0385 826.666 114.388 835.138 108.811C840.391 105.355 840.872 101.532 841.334 101.117C841.796 101.164 845.459 105.171 850.379 102.437C854.698 100.051 857.8 93.2205 857.301 87.2757V87.2851Z" fill="#3FA34D"/>
<path d="M709.779 -16.4507C708.965 -23.6966 688.786 -13.476 686.21 -5.37696C684.319 0.5725 692.887 2.04808 693.072 2.70337C693.262 3.41995 686.27 10.2274 689.646 15.5216C691.768 18.8452 697.155 19.7362 699.74 19.7362C700.378 19.7362 701.386 19.7503 701.465 19.1327C701.937 15.3 691.856 15.3377 692.749 11.637C693.641 7.92211 698.399 4.16952 697.285 1.00622C696.207 -2.04394 690.862 -2.00151 690.33 -3.46295C690.043 -4.25967 691.292 -6.37168 691.764 -6.83839C704.272 -19.2746 710.107 -13.641 709.779 -16.4507Z" fill="#3FA34D"/>
<path d="M806.154 17.6312C796.268 2.3333 774.41 -7.40651 747.858 5.33161L747.742 5.39761C713.612 21.8741 701.821 74.401 738.277 91.4479C780.865 111.366 830.366 55.1006 806.154 17.6312ZM757.148 91.5233C731.322 91.693 710.153 65.9246 726.097 34.136C736.756 12.8886 760.403 -1.47586 784.31 6.00103C824.484 18.5458 812.447 85.7436 757.143 91.528L757.148 91.5233Z" fill="#3FA34D"/>
<path d="M783.491 33.253C782.437 28.2511 780.495 25.1303 776.999 22.8061C775.048 21.835 776.491 21.9292 777.762 17.2385C778.502 14.4712 775.307 13.0098 773.582 14.8578C771.136 17.4884 771.705 21.3635 768.458 20.0624C768.412 20.0435 768.361 20.0341 768.306 20.0294C758.614 19.3835 751.835 27.1904 752.529 34.5023C753.902 48.8621 770.502 47.2074 768.68 56.9283C767.973 60.7044 764.385 64.1364 760.154 65.0982C757.541 65.6922 752.496 65.7865 748.21 59.7521C744.45 54.4674 744.108 52.4733 741.542 53.567C738.772 54.7455 739.586 57.5223 741.107 60.1576C747.313 70.8166 751.261 68.4642 750.203 70.6563C748.866 73.4566 748.27 76.1108 751.109 77.2092C756.223 79.194 754.702 70.4819 757.62 71.3541C760.255 72.1602 767.293 70.7648 771.404 65.2349C773.966 61.784 775.048 57.3007 774.299 53.2464C772.195 41.8896 758.771 43.5208 758.544 33.4227C758.452 29.2034 763.095 24.8003 769.18 25.9694C776.8 27.4308 776.264 30.9241 778.067 35.5913C779.501 39.3062 784.222 36.7463 783.491 33.253Z" fill="#3FA34D"/>
<path d="M722.125 317.648C675.528 279.179 596.632 317.883 595.083 392.732C594.38 426.516 630.3 470.92 674.395 470.92C739.447 470.92 796.041 378.679 722.125 317.648ZM727.683 419.053C689.396 473.423 617.727 462.052 603.3 410.015C588.743 357.512 634.046 305.593 679.662 307.696C728.807 305.494 764.033 367.435 727.683 419.053Z" fill="#3FA34D"/>
<path d="M593.571 306.8C552.981 306.8 485.423 364.046 486.82 382.196C487.781 394.665 511.364 379.499 521.935 373.074C506.06 392.596 509.168 390.696 506.292 394.538C500.965 403.632 499.577 410.317 502.481 412.881C510.162 419.637 538.623 393.878 542.211 391.295C541.143 394.326 539.96 397.018 540.029 401.232C540.112 406.178 542.142 408.247 543.83 409.11C550.438 412.499 557.406 403.924 564.453 399.172C566.007 403.382 568.661 407.714 574.862 406.107C582.899 404.028 586.487 398.668 585.696 397.692C584.698 396.461 572.777 402.854 571.006 400.45C567.88 396.16 570.15 396.542 569.665 393.746C568.217 385.524 560.185 399.431 547.478 404.575C545.934 405.173 545.36 403.467 545.286 401.784C544.704 389.767 557.776 379.678 552.888 376.723C551.635 375.964 549.582 377.915 545.074 382.177C539.257 387.674 530.462 395.985 517.588 403.868C510.999 407.894 507.207 409.478 506.315 408.568C505.686 407.931 505.945 405.442 510.749 397.22C518.351 384.199 529.514 372.418 540.612 360.298C542.84 357.865 540.709 354.447 537.698 356.866C523.012 368.628 491.245 385.821 491.971 380.626C495.171 357.323 601.358 280.296 613.829 326.195C614.555 328.891 617.418 328.439 617.635 325.86C618.477 315.686 603.827 306.805 593.562 306.805L593.571 306.8Z" fill="#3FA34D"/>
<path d="M788.689 356.408C776.934 356.408 760.898 369.825 762.077 372.673C765.254 380.314 798.238 329.518 811.472 395.612C823.43 455.353 811.786 511.26 806.348 513.075C805.581 513.334 804.79 512.721 803.458 511.637C788.245 499.295 788.074 450.865 783.228 450.592C778.622 450.346 782.021 456.249 776.292 477.864C775.557 480.655 774.405 483.455 773.281 486.401C773.018 487.094 772.773 487.203 772.172 486.373C766.271 478.189 765.314 462.811 763.34 456.48C762.498 453.807 759.303 453.382 757.513 457.498C756.792 459.167 753.722 463.287 753.074 461.783C752.21 459.77 752.159 457.804 751.285 453.463C749.537 444.76 750.762 441.785 750.374 439.914C749.75 436.859 743.174 442.742 747.706 461.864C748.385 464.744 749.689 466.752 751.377 467.521C755.22 469.26 758.785 464.211 759.677 463.499C760.736 464.306 761.083 475.436 765.712 485.044C768.357 490.527 770.877 493.044 773.268 492.761C779.006 492.082 781.859 475.257 783.344 469.411C785.498 481.286 788.046 500.79 797.53 512.75C828.169 551.379 835.892 356.408 788.689 356.408Z" fill="#3FA34D"/>
<path d="M593.909 589.466C592.803 588.905 592.17 588.612 591.735 588.358C592.124 588.259 592.877 588.127 594.302 587.976C605.362 586.788 613.556 582.305 614.222 577.072C615.669 565.696 580.378 560.925 562.96 571.141C560.916 572.339 562.224 575.172 564.328 574.05C573.817 569.086 601.991 567.785 609.316 574.946C613.057 578.618 599.684 582.21 594.487 582.965C582.58 584.681 580.009 583.936 579.652 586.482C579.338 588.735 582.182 589.522 583.25 589.815C583.407 589.857 583.527 589.89 583.592 589.914C610.893 600.851 620.021 620.599 607.924 624.634C594.094 629.231 565.845 608.073 562.164 606.22C558.294 604.288 558.423 610.171 558.016 611.661C557.064 615.229 554.65 619.227 551.191 618.058C537.462 613.419 539.543 590.607 536.029 590.102C529.934 589.221 535.192 607.79 538.715 613.73C541.471 618.383 546.9 623.116 552.232 623.116C560.439 623.116 562.164 612.33 562.419 611.727C562.419 611.727 562.511 611.783 562.58 611.835C574.848 620.986 598.565 635.515 612.123 628.51C616.021 626.492 618.171 622.862 618.171 618.284C618.171 610.779 611.882 598.602 593.913 589.461L593.909 589.466Z" fill="#3FA34D"/>
<path d="M540.963 521.999C539.714 513.188 535.137 504.566 527.387 508.672C517.972 513.655 515.937 524.847 514.957 530.226C514.823 530.956 514.703 531.631 514.587 532.111C513.117 530.216 509.986 524.375 505.159 522.193C493.358 516.823 493.215 542.374 502.602 558.054C513.223 575.799 520.404 570.83 514.795 566.884C499.383 556.032 494.398 517.836 506.07 528.312C511.332 533.04 512.46 541.549 516.367 540.682C517.533 540.423 518.36 539.404 518.527 538.018C520.594 520.962 525.805 512.269 530.013 512.269C530.115 512.269 530.221 512.274 530.323 512.283C534.189 512.684 537.749 520.849 536.441 537.835C536.385 538.014 536.441 538.226 536.612 538.348C536.686 557.154 543.659 541.116 540.958 521.995L540.963 521.999Z" fill="#3FA34D"/>
<path d="M621.422 474.286C621.038 471.792 617.875 471.287 616.603 472.749C616.095 473.329 615.73 474.022 615.323 474.63C593.83 507.107 593.737 505.141 556.111 543.869C555.538 544.35 551.996 548.131 553.355 549.649C553.975 550.332 555.057 549.997 555.778 549.389C570.867 536.482 612.072 497.871 621.394 474.536C621.426 474.455 621.436 474.371 621.422 474.286Z" fill="#3FA34D"/>
<path d="M631.84 483.719C628.645 482.54 618.721 501.907 599.652 520.769C570.511 549.606 569.849 548.861 571.181 550.46C573.891 553.675 623.762 508.78 632.668 486.967C632.686 486.915 632.7 486.868 632.705 486.812C632.802 484.907 632.543 483.978 631.84 483.719Z" fill="#3FA34D"/>
<path d="M790.501 385.365C788.989 384.408 787.112 385.761 788.055 387.995C791.033 394.982 792.43 402.714 791.898 409.205C790.575 425.097 779.681 416.927 777.526 416.715C770.669 415.97 778.063 431.239 770.581 429.443C767.03 428.59 763.931 426.907 762.6 425.7C762.248 425.389 761.666 424.866 760.889 425.295C759.964 425.794 760.334 426.577 760.496 426.912C760.547 427.015 760.616 427.161 760.616 427.227C760.736 432.484 772.75 438.702 777.73 431.838C779.593 429.264 779.297 426.577 779.371 422.904C781.207 422.937 784.786 425.884 789.808 423.088C795.454 419.934 796.813 412.981 796.957 407.701C797.225 398.056 793.632 387.364 790.501 385.374V385.365Z" fill="#3FA34D"/>
<path d="M580.166 373.446C579.578 373.093 579.116 369.519 579.125 365.295C579.125 360.515 576.656 359.567 574.048 358.544C571.066 357.375 571.283 357.003 572.841 352.576C575.042 346.315 576.101 344.274 570.048 342.11C568.767 341.648 567.838 341.493 567.838 340.281C567.838 337.104 574.228 330.461 578.145 328.858C580.661 327.835 579.44 325.172 577.188 325.629C571.163 326.883 561.6 336.213 562.923 341.761C563.792 345.401 568.716 346.339 569.512 347.098C565.937 355.593 564.342 360.062 572.864 363.697C575.065 364.885 572.208 372.833 578.385 375.883C578.45 375.916 578.515 375.935 578.584 375.935H578.635C581.192 375.634 581.382 374.177 580.156 373.441L580.166 373.446Z" fill="#3FA34D"/>
<path d="M712.355 333.398C681.197 298.079 609.057 334.704 613.871 397.343C615.767 421.966 635.539 441.578 660.842 441.578C711.236 441.578 746.933 372.593 712.355 333.398ZM721.052 375.398C717.224 427.77 652.597 461.043 624.881 417.054C605.617 386.477 626.938 329.471 677.854 324.097C707.055 324.653 723.059 347.942 721.057 375.398H721.052Z" fill="#3FA34D"/>
<path d="M685.743 352.046C684.356 351.231 685.22 351.646 686.732 346.997C688.568 341.373 681.433 336.635 678.723 347.643C678.492 348.6 678.095 348.643 676.462 348.671C659.922 348.935 651.243 367.821 666.336 378.55C674.59 384.405 678.349 385.754 679.047 391.123C680.596 402.947 666.345 412.611 652.898 394.951C650.771 392.165 645.495 392.085 645.416 396.078C645.347 399.911 651.122 405.874 654.086 408.071C656.107 409.566 654.817 408.722 652.644 415.072C651.358 418.812 656.26 422.405 659.043 418.723C661.61 415.327 661.707 413.639 662.026 411.946C662.387 411.772 666.835 412.842 667.219 412.781C672.953 411.852 677.244 411.131 681.438 406.058C687.065 399.241 689.447 388.182 682.774 381.115C676.948 374.93 663.015 371.771 666.072 362.8C667.283 359.25 671.098 356.487 675.144 356.223C677.669 356.044 682.478 356.77 685.729 363.427C688.203 368.495 692.364 367.613 693.109 364.167C693.877 360.593 689.613 354.309 685.747 352.042L685.743 352.046Z" fill="#3FA34D"/>
<path d="M494.408 59.606C472.378 40.8525 443.769 35.926 425.194 39.3533C370.237 49.4938 344.971 104.76 349.105 151.61C355.343 222.462 446.123 263.882 499.697 191.597C527.71 153.807 533.865 93.2049 494.408 59.606ZM503.142 112.915C503.184 148.975 485.922 183.159 458.095 202.134C410.203 234.757 357.729 205.882 354.289 148.81C347.408 34.3892 494.495 0.653568 503.142 112.915Z" fill="#3FA34D"/>
<path d="M557.221 89.3905L557.152 89.4235C539.774 95.9623 523.794 118.054 528.196 119.972C530.018 120.764 534.392 114.174 538.54 109.605C546.655 100.681 557.304 92.8886 569.285 93.2421C621.635 95.2127 614.624 263.787 597.002 252.454C588.383 246.896 585.456 233.375 577.623 210.746C576.795 208.347 573.29 207.856 572.148 210.841C571.089 213.551 570.677 236.303 562.95 245.34C556.477 252.939 551.358 215.555 550.188 205.485C548.565 191.441 543.922 203.944 531.978 209.978C530.383 210.784 528.986 207.39 528.755 205.447C527.414 194.058 531.03 179.439 524.2 183.083C521.907 184.318 519.882 187.797 519.151 187.957C518.61 187.392 518.559 179.212 518.564 178.189C518.578 175.2 518.582 173.961 517.824 173.734C517.237 173.55 516.733 174.168 516.085 175.2C510.832 183.568 512.83 199.55 522.823 192.558C523.451 197.325 520.95 210.077 527.562 214.522C533.06 218.223 539.603 212.25 544.87 208.243C546.969 220.727 549.591 253.397 561.79 252.143C565.396 251.784 572.032 247.485 576.097 222.82C576.147 222.942 580.106 234.671 581.031 237.179C589.372 259.799 603.092 268.68 609.973 245.755C626.18 191.771 611.244 69.251 557.226 89.3811L557.221 89.3905Z" fill="#3FA34D"/>
<path d="M338.803 53.4265C294.245 51.8943 198.85 144.446 231.404 152.097C239.769 154.058 253.812 143.046 259.648 140.236C257.294 143.842 249.715 150.362 245.868 169.238C245.84 169.384 245.882 169.535 245.974 169.644C245.997 169.771 246.025 170.044 246.048 170.294C246.46 174.815 248.263 177.611 252.772 177.611C265.053 177.611 285.824 158.004 292.557 152.469C291.299 157.599 287.609 167.39 292.705 171.756C294.236 173.071 296.247 173.311 298.226 172.416C313.023 165.693 317.315 156.675 317.865 158.664C323.932 180.793 348.684 156.062 345.771 153.492C343.644 151.616 329.689 164.581 324.963 161.841C321.643 159.918 324.579 151.729 321.402 150.254C317.624 148.476 308.871 161.224 297.958 166.523C295.581 167.678 295.484 167.499 295.406 164.816C295.128 154.61 303.974 144.205 299.983 141.537C295.456 138.487 285.145 157.217 260.48 169.625C256.929 171.412 251.486 173.858 251.398 169.978C251.079 156.632 268.48 137.252 277.894 127.851C281.626 124.132 286.319 120.11 281.265 118.795C279.906 118.46 230.266 158.909 229.919 143.592C229.725 135.14 251.024 107.966 276.156 88.2982C288.765 78.4312 328.56 52.0405 345.434 59.9134C356.943 65.2877 361.997 84.8898 364.651 80.3876C367.051 76.3286 356.032 54.0205 338.812 53.4265H338.803Z" fill="#3FA34D"/>
<path d="M400.562 324.239C393.663 317.578 364.813 317.814 359.768 322.646C358.219 324.126 358.261 325.102 358.566 325.658C358.931 326.318 359.782 326.53 360.392 326.356C385.173 319.501 405.741 328.223 398.777 333.225C389.043 340.192 373.71 336.756 373.233 341.852C373.016 344.223 375.277 344.742 380.216 348.518C384.123 351.507 386.444 357.72 381.247 359.106C375.379 360.681 367.809 357.14 365.511 359.818C363.01 362.741 368.831 369.779 364.739 369.482C359.153 369.11 354.862 366.536 351.639 371C344.985 380.217 340.291 365.848 331.871 369.581C327.191 371.651 323.501 361.878 324.556 356.697C324.731 355.844 324.371 355.457 324.144 355.302C323.668 354.976 322.947 355.104 322.641 355.316C315.271 360.186 323.224 378.256 332.514 374.843C340.782 371.811 343.649 387.562 355.574 373.655C356.36 372.74 356.966 372.848 358.964 373.362C362.575 374.296 366.519 375.205 369.113 372.565C372.165 369.454 369.52 364.311 369.997 363.797C371.06 362.595 380.234 366.206 385.755 362.156C389.654 359.309 389.311 353.204 387.365 350.253C384.664 346.175 381.649 344.119 380.623 343.115C380.687 343.106 380.771 343.096 380.863 343.087C399.281 341.578 403.493 335.945 404.363 332.725C405.177 329.722 403.725 326.526 400.566 324.249L400.562 324.239Z" fill="#3FA34D"/>
<path d="M338.206 310.223C334.012 287.062 314.79 283.158 313.573 298.3C312.75 308.54 315.192 312.524 315.086 313.278C314.914 313.396 313.939 313.292 313.578 313.254C302.023 313.254 297.468 324.884 304.191 331.621C304.561 331.992 304.643 332.297 304.436 332.536C301.616 335.789 298.85 339.669 301.75 344.538C305.061 350.087 310.707 352.251 314.526 351.53C316.533 351.143 316.547 349.941 315.534 349.328C312.006 347.881 309.125 346.193 306.494 342.464C303.017 337.533 310.572 335.756 310.67 332.588C310.73 330.674 308.505 329.189 306.882 327.482C304.237 324.701 305.393 319.109 311.511 318.176C315.788 317.53 322.345 322.923 319.65 311.967C318.521 307.38 316.302 296.896 320.121 294.072C321.129 293.322 322.068 293.803 322.53 293.959C332.028 298.15 333.753 310.039 334.054 314.97C334.289 318.831 339.242 315.88 338.206 310.223Z" fill="#3FA34D"/>
<path d="M587.694 131.622C586.173 130.504 584.115 131.528 585.373 135.851C587.467 143.03 590.14 149.701 590.325 161.223C590.422 166.875 588.586 173.9 583.135 172.363C580.591 171.637 577.826 169.284 575.352 167.705C569.017 163.679 570.465 175.092 566.922 175.385C563.302 175.682 559.704 172.641 557.559 169.69C553.859 164.603 556.153 163.854 555.2 163.08C554.081 162.161 550.65 164.202 552.005 168.907L552.024 169.011C555.372 180.292 569.988 186.426 574.238 174.3C574.395 173.862 574.524 173.81 574.524 173.81C574.737 173.739 575.389 174.206 575.967 174.616C583.953 180.189 590.14 178.067 593.123 172.679C599.397 161.36 591.874 134.667 587.694 131.622Z" fill="#3FA34D"/>
<path d="M330.932 121.924C330.817 120.717 330.419 121.198 322.327 120.5C318.332 120.156 318.327 119.906 318.267 118.699C317.994 113.584 319.312 112.98 320.487 108.695C323.344 98.3331 301.297 111.439 302.971 102.18C304.284 94.9388 313.361 85.2179 319.127 81.2673C320.769 80.1453 320.066 78.3397 318.406 77.8164C312.589 76.0156 293.01 98.3378 298.124 107.3C301.458 113.15 312.972 110.501 313.851 110.557C313.786 111.147 310.105 120.288 314.753 124.186C317.435 126.44 321.855 126.369 325.328 125.968C329.406 125.488 331.062 123.324 330.932 121.924Z" fill="#3FA34D"/>
<path d="M386.634 231.485C385.945 229.363 385.594 228.496 384.895 228.496C384.008 228.496 383.559 229.896 381.908 235.096C366.464 283.733 347.135 313.646 352.481 312.283C355.449 311.477 380.965 264.782 386.653 231.72C386.666 231.645 386.657 231.56 386.634 231.485Z" fill="#3FA34D"/>
<path d="M398.375 245.628C398.204 242.97 395.942 242.008 394.759 245.016C390.995 254.619 390.283 258.838 383.217 274.848C372.179 299.909 371.495 298.881 372.48 300.314C372.614 300.602 373.002 300.673 373.229 300.432C382.81 290.363 398.805 252.426 398.375 245.628Z" fill="#3FA34D"/>
<path d="M478.001 75.9647C467.102 61.784 450.793 55.3301 433.125 55.3301C364.374 55.3301 338.451 173.051 398.92 198.928C414.503 205.594 431.469 203.605 446.447 195.628C486.685 174.192 504.95 111.016 478.001 75.9647ZM484.318 133.055C477.497 167.587 451.561 198.174 416.205 197.688C371.818 197.335 351.385 128.902 389.33 82.9937C427.095 37.2932 498.116 63.203 484.318 133.055Z" fill="#3FA34D"/>
<path d="M451.006 100.837C445.503 93.8696 440.347 93.7423 439.658 93.0965C439.21 91.767 444.874 81.3484 439.515 79.095C433.397 76.5398 433.629 92.1159 431.83 92.2715C407.775 94.2279 399.447 117.139 421.268 129.863C426.225 132.744 431.053 134.606 433.629 137.34C444.162 148.541 428.385 163.882 412.635 154.1C407.183 150.72 404.612 146.312 400.298 145.241C395.42 144.03 394.426 153.836 409.778 162.534C413.616 164.697 413.065 163.212 411.803 167.517C410.545 171.802 410.309 175.861 414.698 175.861C417.897 175.861 419.03 172.881 420.676 166.753C420.968 165.673 420.996 165.791 422.878 165.782C437.258 165.72 449.202 153.666 444.426 139.584C440.944 129.34 434.239 127.44 427.169 123.57C419.553 119.412 415.863 114.221 417.047 109.328C418.309 104.109 424.94 100.243 432.815 100.21C436.791 100.196 445.327 102.695 445.753 109.092C446.086 114.217 451.154 115.791 453.013 112.463C454.442 109.912 454.072 104.741 450.997 100.837H451.006Z" fill="#3FA34D"/>
<path d="M119.796 567.011C116.199 559.242 116.638 559.756 115.907 559.629C115.658 559.582 115.325 559.747 115.135 559.935C108.342 570.99 97.6978 576.534 86.6601 574.776C62.6334 570.943 53.0246 537.354 66.8274 516.776C76.8617 501.817 96.1395 497.061 108.754 509.997C109.031 510.284 109.475 510.322 109.794 510.091L115.218 506.173C115.718 505.81 115.653 505.032 115.108 504.759C106.317 500.351 98.7845 497.065 88.4497 498.06C46.7034 502.119 42.4631 580.061 94.6829 580.061C106.562 580.061 112.828 574.776 119.63 567.945C119.875 567.7 119.94 567.323 119.792 567.007L119.796 567.011Z" fill="#3FA34D"/>
<path d="M127.038 421.467C106.4 425.384 88.422 453.166 96.7638 480.692C100.611 493.407 107.732 498.597 117.364 504.542C118.062 504.966 118.821 504.146 122.076 501.888C122.612 501.516 122.52 500.681 121.914 500.436C115.399 497.843 104.505 489.843 101.203 478.415C95.3812 458.262 104.68 436.213 122.377 428.222C144.013 418.445 168.039 432.408 164.289 471.608C164.225 472.273 164.927 472.739 165.501 472.4C172.858 468.039 173.01 468.402 173.103 467.662C176.728 437.142 156.451 415.884 127.038 421.467Z" fill="#3FA34D"/>
<path d="M129.891 456.961C116.994 457.913 123.648 442.662 132.642 448.206C133.729 448.871 135.213 450.766 137.493 449.356C139.403 448.168 137.867 445.981 136.198 444.439C134.515 442.884 132.906 442.483 131.731 442.186C130.497 441.88 130.344 441.776 130.386 441.262C130.862 435.36 124.102 434.209 124.721 441.804C124.786 442.573 124.666 442.629 123.894 443.002C114.636 447.471 116.555 460.355 125.581 461.727C131.135 462.571 137.155 460.906 136.434 468.407C135.851 474.498 128.596 475.865 123.352 472.739C121.424 471.584 120.449 471.005 119.024 472.447C117.702 473.767 118.543 475.233 119.889 476.534C123.537 480.061 128.716 479.283 129.368 479.707C129.581 479.891 129.785 480.716 129.974 482.168C130.187 483.86 131.486 484.681 132.776 484.681C135.764 484.681 135.389 481.362 135.005 478.368C135.005 478.368 135.056 478.321 135.227 478.227C145.164 472.999 143.033 455.989 129.886 456.956L129.891 456.961Z" fill="#3FA34D"/>
<path d="M194.443 452.053C159.693 469.397 154.759 474.677 100.125 513.65C94.5257 517.643 93.231 515.965 103.936 535.195C117.267 559.139 116.791 570.637 120.957 569.901C129.646 570.524 149.52 538.245 229.53 503.038C235.287 500.507 233.697 500.299 220.657 471.221C208.68 444.52 214.655 441.969 194.452 452.053H194.443ZM109.966 532.253C102.821 519.411 102.599 519.802 104.167 518.676C116.939 509.478 118.904 507.135 119.718 509.44C121.669 514.961 117.6 525.521 113.79 529.915C113.239 530.551 111.602 535.19 109.966 532.253ZM129.706 556.744C123.269 561.411 122.899 562.547 122.27 560.977C116.513 546.556 114.719 545.434 119.639 544.741C128.323 543.525 135.019 546.627 137.927 549.427C139.231 550.686 139.019 549.988 129.706 556.744ZM143.976 521.589C127.519 505.339 159.184 471.712 183.114 484.025C208.181 496.924 165.561 542.902 143.976 521.589ZM217.859 483.695C219.413 482.663 219.603 482.677 220.435 484.417C226.77 497.617 226.964 497.508 225.739 498.055C209.864 505.113 208.916 506.645 208.916 501.435C209.48 494.265 211.584 487.868 217.855 483.695H217.859ZM212.306 467.313C205.453 474.215 183.599 464.518 189.953 461.161C201.092 455.273 202.762 455.113 205.989 453.642C207.33 453.029 206.891 453.326 210.387 461.02C212.805 466.333 213.434 466.172 212.306 467.313Z" fill="#3FA34D"/>
<path d="M103.436 546.127C103.288 539.272 99.3302 533.639 92.653 534.091C84.7504 534.624 83.8903 537.42 80.7968 533.945C76.3716 528.981 82.9193 522.673 88.741 524.804C97.0227 527.826 95.4228 520.175 90.7062 519.571C84.9493 518.826 84.5053 519.123 84.473 517.888C84.3897 515.163 80.8939 512.179 78.6836 515.413C76.871 518.049 80.0246 520.439 78.531 521.617C69.1164 529.071 76.0017 543.058 86.0313 540.847C87.0486 540.625 88.0751 540.442 89.1017 540.258C92.0472 539.734 94.9835 538.726 97.0597 541.436C100.19 545.528 97.4944 553.359 90.586 553.439C88.5098 553.472 86.5816 553.661 84.7458 552.878C81.6846 551.577 78.0455 555.546 83.747 558.276C90.6461 561.566 92.8148 556.282 94.7569 560.595C96.9303 565.413 102.761 562.844 99.6307 556.706C99.1868 555.834 99.6076 555.249 100.593 554.005C101.836 552.44 103.538 550.295 103.446 546.136L103.436 546.127Z" fill="#3FA34D"/>
<path d="M176.825 503.467C175.683 500.535 172.724 499.078 171.128 499.342C168.007 499.243 166.268 500.521 162.074 501.926C160.303 502.52 158.68 502.26 159.577 500.596C161.825 496.476 166.888 495.759 168.955 495.637C170.176 495.547 171.299 494.166 171.077 492.935C170.597 490.272 165.27 491.097 163.517 491.375C163.018 491.455 162.865 491.413 162.962 491.408C162.837 491.059 162.601 490.404 161.732 490.022C158.713 488.707 156.988 491.102 157.991 493.859C158.158 494.317 158.07 494.477 157.792 494.689C151.656 499.319 153.927 506.961 158.676 507.479C162.199 507.87 162.874 507.668 165.829 506.508C170.398 504.726 170.851 504.443 171.443 505.315C172.941 507.55 168.012 509.775 165.487 510.921C162.745 512.17 160.16 513.344 160.738 515.795C161.496 518.982 165.062 517.351 167.485 516.465C167.864 517.582 169.015 518.793 170.328 518.793C171.845 518.793 172.885 517.28 172.566 515.767C172.266 514.282 173.269 513.796 174.902 512.024C177.177 509.563 177.907 506.282 176.811 503.467H176.825Z" fill="#3FA34D"/>
</svg>
