<svg width="108" height="32" viewBox="0 0 108 32" fill="none" xmlns="http://www.w3.org/2000/svg">
<path d="M16.7236 8.63865C15.1186 6.86903 13.0519 5.98422 10.5941 5.98422C8.46329 5.98422 6.72573 6.70446 5.41561 8.18128V6.2471H0.5V31.5817H5.41561V22.4707C6.72573 23.9134 8.46329 24.6657 10.5941 24.6657C13.084 24.6657 15.1507 23.7809 16.7557 22.0433C18.3608 20.3057 19.1815 18.0766 19.1815 15.3239C19.1815 12.5711 18.3629 10.4083 16.7236 8.63865ZM13.1502 18.7007C12.3317 19.5855 11.216 20.0108 9.90591 20.0108C8.5958 20.0108 7.48017 19.5855 6.66161 18.6665C5.84305 17.8137 5.41561 16.7002 5.41561 15.3239C5.41561 13.9475 5.80886 12.7998 6.66161 11.915C7.48017 11.0302 8.5616 10.5707 9.90591 10.5707C11.2502 10.5707 12.3317 11.0302 13.1502 11.9471C14.003 12.8319 14.4283 13.9796 14.4283 15.3239C14.4283 16.6682 14.003 17.8137 13.1502 18.6986V18.7007Z" fill="#3FA34D"/>
<path d="M37.9612 10.2779C37.6 9.65597 37.1747 9.06609 36.6511 8.54034C36.4545 8.34371 36.2578 8.17915 36.0612 8.01672C34.422 6.60829 32.3574 5.88591 29.8996 5.88591C27.1789 5.88591 24.9498 6.77072 23.2144 8.54034C21.4768 10.31 20.592 12.5711 20.592 15.2918C20.592 18.0125 21.4768 20.2416 23.2144 22.0433C24.9519 23.845 27.1811 24.7298 29.8996 24.7298C32.6182 24.7298 34.8815 23.845 36.6511 22.0754C38.3545 20.2737 39.2393 18.0104 39.2393 15.2918C39.2393 13.3918 38.814 11.6863 37.9612 10.2779ZM33.1439 18.6686C32.3254 19.5855 31.2439 20.0129 29.8996 20.0129C28.5553 20.0129 27.5059 19.5876 26.6874 18.6686C25.8346 17.7838 25.4414 16.6703 25.4414 15.294C25.4414 15.1294 25.4414 14.967 25.4734 14.8024C25.5397 13.6547 25.9329 12.7058 26.6532 11.9193C26.6745 11.8979 26.6966 11.8758 26.7194 11.853C27.5722 11.0003 28.6194 10.575 29.8996 10.575C30.981 10.575 31.8659 10.8699 32.6203 11.4598C32.8169 11.5902 32.9815 11.7547 33.1439 11.9193C33.7017 12.5092 34.0608 13.2294 34.2574 14.0159C34.3557 14.4091 34.3878 14.8345 34.3878 15.294C34.3878 16.6703 33.9945 17.7838 33.1418 18.6686H33.1439Z" fill="#3FA34D"/>
<path d="M53.471 20.4126H50.4426C48.9209 20.4126 47.8395 20.0984 47.1961 19.4701C46.5528 18.8396 46.2323 17.7795 46.2323 16.2835V6.25351H41.3167V17.4611C41.3167 19.6902 42.0112 21.3957 43.4004 22.5733C44.7918 23.7531 46.5486 24.343 48.6708 24.343H58.3845V6.25351H53.4689V20.4126H53.471Z" fill="#3FA34D"/>
<path d="M77.3887 8.63865C75.7495 6.86903 73.717 5.98422 71.2591 5.98422C69.0963 5.98422 67.3587 6.70446 66.0486 8.18128V6.2471H61.133V31.5817H66.0486V22.4707C67.3587 23.9134 69.0963 24.6657 71.2591 24.6657C73.749 24.6657 75.7815 23.7809 77.3887 22.0433C79.028 20.3057 79.8144 18.0766 79.8144 15.3239C79.8144 12.5711 78.9959 10.4083 77.3887 8.63865ZM73.8174 18.7007C72.9647 19.5855 71.8832 20.0108 70.5389 20.0108C69.1946 20.0108 68.1132 19.5855 67.3267 18.6665C66.4739 17.8137 66.0486 16.7002 66.0486 15.3239C66.0486 13.9475 66.4739 12.7998 67.2946 11.915C68.1132 11.0302 69.1946 10.5707 70.5389 10.5707C71.8832 10.5707 72.9647 11.0302 73.8174 11.9471C74.636 12.8319 75.0634 13.9796 75.0634 15.3239C75.0634 16.6682 74.6381 17.8137 73.8174 18.6986V18.7007Z" fill="#3FA34D"/>
<path d="M98.9212 15.2918C98.9212 12.5391 98.1347 10.2779 96.5617 8.54034C94.9887 6.77072 92.8899 5.88591 90.2355 5.88591C87.5811 5.88591 85.352 6.77072 83.7127 8.54034C82.0735 10.31 81.2228 12.5711 81.2228 15.2918C81.2228 18.0125 82.0756 20.2737 83.779 22.0754C85.4823 23.845 87.7114 24.7298 90.4321 24.7298C92.0714 24.7298 93.5461 24.4028 94.8904 23.7467C96.2347 23.0905 97.2841 22.2057 98.0706 21.026L94.7279 18.6002C93.7448 19.8783 92.3364 20.5344 90.4343 20.5344C89.3208 20.5344 88.3376 20.1732 87.517 19.485C86.7305 18.7969 86.2068 17.8458 85.944 16.634H98.9233V15.2897L98.9212 15.2918ZM86.0423 13.5222C86.271 12.3745 86.7625 11.4576 87.4849 10.8015C88.2393 10.1133 89.1562 9.78634 90.2376 9.78634C91.3191 9.78634 92.2359 10.1475 92.9241 10.8015C93.6444 11.4897 94.1039 12.4066 94.3326 13.5222H86.0401H86.0423Z" fill="#3FA34D"/>
<path d="M103.848 3.65251V0H101.358V3.65251H97.7051V6.14237H101.358V9.79489H103.848V6.14237H107.5V3.65251H103.848Z" fill="#054A29"/>
</svg>
