<svg width="47" height="47" viewBox="0 0 47 47" fill="none" xmlns="http://www.w3.org/2000/svg">
<circle cx="23.7881" cy="23.6219" r="22.8711" fill="#98DDA6"/>
<path fill-rule="evenodd" clip-rule="evenodd" d="M20.6505 13.6218C20.6957 13.6218 20.7415 13.6218 20.7881 13.6218L28.0294 13.6218C28.8344 13.6218 29.4987 13.6218 30.0399 13.666C30.602 13.712 31.1187 13.8105 31.604 14.0578C32.3567 14.4413 32.9686 15.0532 33.3521 15.8059C33.5994 16.2912 33.698 16.8079 33.7439 17.37C33.7881 17.9112 33.7881 18.5756 33.7881 19.3805V27.8632C33.7881 28.6681 33.7881 29.3325 33.7439 29.8737C33.698 30.4358 33.5994 30.9525 33.3521 31.4378C32.9686 32.1905 32.3567 32.8024 31.604 33.1859C31.1187 33.4332 30.602 33.5317 30.0399 33.5777C29.4987 33.6219 28.8344 33.6219 28.0294 33.6218H20.7881C20.7416 33.6218 20.6957 33.6219 20.6505 33.6219C19.8551 33.6223 19.2645 33.6226 18.7528 33.4855C17.3724 33.1157 16.2943 32.0375 15.9244 30.6571C15.7873 30.1455 15.7876 29.5548 15.788 28.7594C15.7881 28.7142 15.7881 28.6684 15.7881 28.6218C15.7881 28.0696 16.2358 27.6218 16.7881 27.6218C17.3404 27.6218 17.7881 28.0696 17.7881 28.6218C17.7881 29.6162 17.7967 29.9172 17.8562 30.1395C18.0412 30.8297 18.5803 31.3688 19.2704 31.5537C19.4927 31.6133 19.7937 31.6218 20.7881 31.6218H27.9881C28.8447 31.6218 29.427 31.6211 29.877 31.5843C30.3155 31.5485 30.5397 31.4835 30.6961 31.4039C31.0724 31.2121 31.3784 30.9062 31.5701 30.5298C31.6498 30.3734 31.7147 30.1492 31.7505 29.7108C31.7873 29.2607 31.7881 28.6784 31.7881 27.8218V19.4218C31.7881 18.5653 31.7873 17.983 31.7505 17.5329C31.7147 17.0945 31.6498 16.8703 31.5701 16.7139C31.3784 16.3375 31.0724 16.0316 30.6961 15.8398C30.5397 15.7601 30.3155 15.6952 29.877 15.6594C29.427 15.6226 28.8447 15.6218 27.9881 15.6218H20.7881C19.7937 15.6218 19.4927 15.6304 19.2704 15.69C18.5803 15.8749 18.0412 16.414 17.8562 17.1042C17.7967 17.3265 17.7881 17.6275 17.7881 18.6218C17.7881 19.1741 17.3404 19.6218 16.7881 19.6218C16.2358 19.6218 15.7881 19.1741 15.7881 18.6218C15.7881 18.5753 15.7881 18.5295 15.788 18.4843C15.7876 17.6889 15.7873 17.0982 15.9244 16.5866C16.2943 15.2062 17.3724 14.128 18.7528 13.7581C19.2645 13.621 19.8551 13.6214 20.6505 13.6218ZM23.081 18.9147C23.4715 18.5242 24.1047 18.5242 24.4952 18.9147L28.4952 22.9147C28.8857 23.3053 28.8857 23.9384 28.4952 24.329L24.4952 28.329C24.1047 28.7195 23.4715 28.7195 23.081 28.329C22.6905 27.9384 22.6905 27.3053 23.081 26.9147L25.3739 24.6218H14.7881C14.2358 24.6218 13.7881 24.1741 13.7881 23.6218C13.7881 23.0696 14.2358 22.6218 14.7881 22.6218H25.3739L23.081 20.329C22.6905 19.9384 22.6905 19.3053 23.081 18.9147Z" fill="#3FA34D"/>
</svg>
