<svg width="110" height="33" viewBox="0 0 110 33" fill="none" xmlns="http://www.w3.org/2000/svg">
<path d="M17.1084 9.37495C15.4821 7.58189 13.3881 6.68536 10.8977 6.68536C8.73868 6.68536 6.9781 7.41515 5.65064 8.91153V6.95172H0.669922V32.6219H5.65064V23.3902C6.9781 24.852 8.73868 25.6142 10.8977 25.6142C13.4205 25.6142 15.5146 24.7177 17.1409 22.9571C18.7672 21.1966 19.5988 18.9379 19.5988 16.1487C19.5988 13.3595 18.7694 11.168 17.1084 9.37495ZM13.4877 19.5703C12.6583 20.4668 11.5279 20.8977 10.2004 20.8977C8.87294 20.8977 7.74253 20.4668 6.91314 19.5356C6.08374 18.6716 5.65064 17.5433 5.65064 16.1487C5.65064 14.7541 6.04909 13.5912 6.91314 12.6947C7.74253 11.7982 8.83829 11.3326 10.2004 11.3326C11.5625 11.3326 12.6583 11.7982 13.4877 12.7272C14.3517 13.6237 14.7827 14.7866 14.7827 16.1487C14.7827 17.5108 14.3517 18.6716 13.4877 19.5681V19.5703Z" fill="white"/>
<path d="M38.6273 11.0359C38.2613 10.4057 37.8304 9.80806 37.2998 9.27534C37.1006 9.07611 36.9014 8.90936 36.7022 8.74478C35.0412 7.3177 32.9493 6.58575 30.4589 6.58575C27.7022 6.58575 25.4436 7.48228 23.6852 9.27534C21.9246 11.0684 21.0281 13.3595 21.0281 16.1162C21.0281 18.873 21.9246 21.1316 23.6852 22.9571C25.4458 24.7827 27.7044 25.6792 30.4589 25.6792C33.2135 25.6792 35.5068 24.7827 37.2998 22.9896C39.0258 21.1641 39.9223 18.8708 39.9223 16.1162C39.9223 14.1911 39.4914 12.463 38.6273 11.0359ZM33.7462 19.5378C32.9168 20.4668 31.8211 20.8999 30.4589 20.8999C29.0968 20.8999 28.0336 20.4689 27.2042 19.5378C26.3401 18.6412 25.9417 17.513 25.9417 16.1184C25.9417 15.9517 25.9417 15.7871 25.9741 15.6203C26.0413 14.4574 26.4397 13.496 27.1695 12.699C27.1912 12.6774 27.2135 12.655 27.2366 12.6319C28.1007 11.7679 29.1618 11.3369 30.4589 11.3369C31.5547 11.3369 32.4512 11.6358 33.2157 12.2334C33.4149 12.3655 33.5816 12.5323 33.7462 12.699C34.3114 13.2967 34.6752 14.0265 34.8745 14.8234C34.9741 15.2219 35.0066 15.6528 35.0066 16.1184C35.0066 17.513 34.6081 18.6412 33.7441 19.5378H33.7462Z" fill="white"/>
<path d="M54.3425 21.3048H51.2739C49.732 21.3048 48.6363 20.9865 47.9845 20.3498C47.3326 19.711 47.0078 18.6369 47.0078 17.121V6.95822H42.0271V18.3142C42.0271 20.5729 42.7309 22.301 44.1385 23.4942C45.5482 24.6896 47.3283 25.2872 49.4787 25.2872H59.321V6.95822H54.3403V21.3048H54.3425Z" fill="white"/>
<path d="M78.577 9.37495C76.916 7.58189 74.8566 6.68536 72.3662 6.68536C70.1747 6.68536 68.4141 7.41515 67.0867 8.91153V6.95172H62.106V32.6219H67.0867V23.3902C68.4141 24.852 70.1747 25.6142 72.3662 25.6142C74.8891 25.6142 76.9485 24.7177 78.577 22.9571C80.2379 21.1966 81.0348 18.9379 81.0348 16.1487C81.0348 13.3595 80.2054 11.168 78.577 9.37495ZM74.9584 19.5703C74.0943 20.4668 72.9986 20.8977 71.6364 20.8977C70.2743 20.8977 69.1786 20.4668 68.3817 19.5356C67.5176 18.6716 67.0867 17.5433 67.0867 16.1487C67.0867 14.7541 67.5176 13.5912 68.3492 12.6947C69.1786 11.7982 70.2743 11.3326 71.6364 11.3326C72.9986 11.3326 74.0943 11.7982 74.9584 12.7272C75.7878 13.6237 76.2209 14.7866 76.2209 16.1487C76.2209 17.5108 75.7899 18.6716 74.9584 19.5681V19.5703Z" fill="white"/>
<path d="M100.395 16.1162C100.395 13.327 99.5977 11.0359 98.0039 9.27534C96.4101 7.48228 94.2835 6.58575 91.5939 6.58575C88.9044 6.58575 86.6457 7.48228 84.9848 9.27534C83.3238 11.0684 82.4619 13.3595 82.4619 16.1162C82.4619 18.873 83.326 21.1641 85.0519 22.9896C86.7778 24.7827 89.0365 25.6792 91.7932 25.6792C93.4541 25.6792 94.9483 25.3479 96.3105 24.6831C97.6726 24.0182 98.7359 23.1217 99.5328 21.9263L96.1459 19.4685C95.1497 20.7635 93.7227 21.4283 91.7953 21.4283C90.6671 21.4283 89.671 21.0623 88.8394 20.365C88.0425 19.6677 87.5119 18.704 87.2456 17.4762H100.397V16.1141L100.395 16.1162ZM87.3452 14.3232C87.5769 13.1603 88.075 12.2313 88.8069 11.5665C89.5713 10.8692 90.5004 10.5378 91.5961 10.5378C92.6919 10.5378 93.6209 10.9038 94.3182 11.5665C95.048 12.2638 95.5136 13.1928 95.7453 14.3232H87.343H87.3452Z" fill="white"/>
<path d="M105.386 4.32277V0.621887H102.863V4.32277H99.1624V6.84561H102.863V10.5465H105.386V6.84561H109.087V4.32277H105.386Z" fill="#054A29"/>
</svg>
