<svg width="126" height="105" viewBox="0 0 126 105" fill="none" xmlns="http://www.w3.org/2000/svg">
<path d="M6.46126 0.336731C6.43983 0.337288 6.41964 0.337771 6.39821 0.339936C6.37677 0.340976 6.35528 0.342077 6.33384 0.34422C6.31241 0.346364 6.29089 0.34852 6.27053 0.350663C6.24909 0.352807 6.22783 0.354938 6.20747 0.358153C6.18604 0.361368 6.16559 0.363507 6.14415 0.366722C6.12272 0.369937 6.10227 0.374239 6.08084 0.377776C6.06047 0.382063 6.03921 0.385287 6.01778 0.389681C5.99742 0.393967 5.97587 0.398226 5.95551 0.403155C5.93515 0.408514 5.91386 0.4128 5.8935 0.418265C5.87314 0.423624 5.85264 0.429321 5.83228 0.435108C5.81191 0.441538 5.79168 0.4471 5.77131 0.453423C5.75095 0.459853 5.7315 0.466089 5.71114 0.472948C5.69077 0.48045 5.67051 0.487097 5.65122 0.494599C5.63086 0.502101 5.61167 0.50895 5.5913 0.516773C5.57201 0.524275 5.55146 0.532854 5.53217 0.541106C5.51288 0.549679 5.49259 0.558137 5.4733 0.567139C5.45401 0.575713 5.43477 0.584937 5.41548 0.594154C5.39619 0.603799 5.37799 0.613001 5.3587 0.622967C5.34049 0.632612 5.32122 0.643137 5.30193 0.653318C5.28371 0.664356 5.26442 0.673998 5.2462 0.684715C5.22798 0.695753 5.20973 0.70656 5.19152 0.717812C5.1733 0.728958 5.15503 0.740317 5.13788 0.751891C5.11966 0.763573 5.10244 0.775472 5.08529 0.787475C5.06814 0.799477 5.05115 0.811687 5.03401 0.824333C5.01686 0.836765 4.99959 0.849729 4.98351 0.862697C4.96743 0.875557 4.9504 0.888874 4.93432 0.90227C4.91825 0.915559 4.90199 0.929041 4.88592 0.942759C4.86984 0.956477 4.85383 0.970205 4.83882 0.984458C4.82275 0.998604 4.80778 1.01329 4.79277 1.02776C4.77777 1.04223 4.76277 1.05668 4.74777 1.07168C4.73277 1.08658 4.71882 1.10193 4.70381 1.11714C4.68988 1.13247 4.67484 1.148 4.66091 1.16365C4.64697 1.1793 4.63297 1.19527 4.61904 1.21124C4.60511 1.2272 4.59242 1.24307 4.57849 1.25925C4.56563 1.27554 4.55263 1.29245 4.53977 1.30906C4.52691 1.32567 4.51414 1.34238 4.50235 1.35942C4.48949 1.37646 4.47777 1.39351 4.46598 1.41087C4.45419 1.42812 4.44245 1.44582 4.43066 1.46339C4.41887 1.48108 4.40815 1.49854 4.39743 1.51644C4.38672 1.53434 4.3749 1.55235 4.36525 1.57057C4.35453 1.58868 4.34481 1.60678 4.33516 1.62532C4.32444 1.64375 4.31576 1.66229 4.30612 1.68105C4.2954 1.69969 4.28696 1.71857 4.27839 1.73743C4.26767 1.75629 4.26132 1.77502 4.25274 1.79421C4.24203 1.81328 4.23539 1.83281 4.22789 1.8521C4.21717 1.87139 4.21184 1.891 4.20434 1.91051C4.19362 1.93001 4.18934 1.9492 4.18184 1.96892C4.17112 1.98864 4.16893 2.00855 4.16143 2.02838C4.15071 2.0482 4.14874 2.0678 4.14338 2.08774C4.13266 2.10788 4.13147 2.12815 4.12611 2.1484C4.11539 2.16855 4.11548 2.18871 4.1112 2.20907C4.1112 2.22922 4.10054 2.2498 4.09733 2.27017C4.09733 2.29053 4.08665 2.31065 4.08451 2.33123C4.08451 2.3518 4.07378 2.37241 4.07378 2.39288C4.07378 2.41345 4.06305 2.43392 4.06305 2.45449C4.06305 2.47518 4.06304 2.49606 4.05233 2.51663C4.05233 2.53742 4.05232 2.55812 4.0416 2.57881C4.0416 2.5996 4.0416 2.62026 4.0416 2.64095C4.0416 2.66184 4.0416 2.68287 4.0416 2.70377C4.04138 2.71481 4.0416 2.72357 4.0416 2.73353V42.3899C4.0416 51.187 8.04371 58.5936 14.2511 63.2469C14.3101 63.2752 14.3693 63.3044 14.4285 63.3318C14.5218 63.3747 14.6142 63.4159 14.7077 63.4561C14.8009 63.4965 14.8951 63.5352 14.9892 63.5729C15.0835 63.6107 15.1773 63.647 15.2721 63.6822C15.3664 63.7174 15.4614 63.7519 15.5567 63.7844C15.6521 63.8171 15.7479 63.8484 15.8437 63.8788C15.9391 63.909 16.0353 63.9376 16.1315 63.9652C16.228 63.993 16.3251 64.0194 16.422 64.0447C16.5184 64.0701 16.6158 64.0944 16.7132 64.1171C16.8107 64.1398 16.9084 64.1618 17.0062 64.182C17.1037 64.2027 17.202 64.2218 17.3003 64.24C17.3989 64.2581 17.4971 64.2755 17.596 64.2914C17.6946 64.3072 17.7933 64.3219 17.8924 64.3353C17.991 64.3489 18.0914 64.361 18.1909 64.3722C18.2906 64.3836 18.3902 64.3936 18.49 64.4024C18.5897 64.411 18.6899 64.4196 18.7901 64.4263C18.8898 64.4327 18.9902 64.4384 19.0907 64.4429C19.1915 64.4472 19.2923 64.4515 19.3932 64.4539C19.4939 64.4561 19.5951 64.4572 19.6962 64.4582C19.7969 64.4585 19.8984 64.458 19.9997 64.4561C20.1015 64.4539 20.2026 64.4507 20.3042 64.4464C20.406 64.4421 20.507 64.4368 20.6088 64.4312C20.7106 64.4248 20.8124 64.4182 20.9144 64.4101C21.0162 64.4015 21.1186 64.3925 21.2207 64.3827C21.3226 64.3716 21.4248 64.3612 21.5271 64.3491C21.6289 64.337 21.7314 64.3233 21.8338 64.3088C21.9356 64.2948 22.0387 64.28 22.1412 64.2641C22.2441 64.2481 22.3459 64.2306 22.4484 64.2126C22.5512 64.1945 22.6532 64.176 22.7558 64.1559C22.8587 64.1359 22.9612 64.1147 23.0637 64.0932C23.1666 64.0712 23.2692 64.0488 23.3717 64.0249C23.4746 64.0014 23.5763 63.9765 23.6789 63.9509C23.7817 63.9255 23.8838 63.8989 23.9863 63.8718C24.0892 63.8443 24.1914 63.8166 24.2937 63.7875C24.4985 63.7292 24.7033 63.6676 24.9078 63.6024C25.1122 63.5374 25.3165 63.4692 25.5203 63.3973C25.7241 63.3256 25.9277 63.2502 26.1307 63.1717C26.3337 63.0936 26.5361 63.0122 26.7382 62.9273C26.9403 62.8429 27.1414 62.7552 27.3424 62.6645C27.5432 62.5735 27.7437 62.4791 27.9434 62.3826C28.1429 62.286 28.3416 62.1864 28.5397 62.084C28.7377 61.9817 28.9348 61.8762 29.1312 61.768C29.3276 61.66 29.5233 61.5493 29.7178 61.4358C29.9123 61.3226 30.1058 61.2072 30.2981 61.0887C30.4906 60.97 30.6822 60.8495 30.8724 60.7261C31.0627 60.6026 31.2514 60.4766 31.4392 60.3487C31.627 60.2208 31.8134 60.0901 31.9986 59.9574C32.1837 59.8248 32.3677 59.6902 32.5504 59.5535C32.7324 59.4164 32.9135 59.2779 33.093 59.137C33.2725 58.996 33.4504 58.8528 33.6265 58.708C33.8029 58.5631 33.9775 58.4161 34.1508 58.2676C34.3235 58.1189 34.4951 57.9685 34.6647 57.8164C34.834 57.6644 35.0017 57.511 35.1673 57.3556C35.3332 57.2002 35.4967 57.0428 35.6587 56.8844C35.8205 56.726 35.9804 56.5656 36.1383 56.4046C36.2962 56.2431 36.4524 56.0806 36.6061 55.9166C36.7598 55.7526 36.9109 55.5872 37.06 55.4204C37.2092 55.2539 37.3566 55.0861 37.5011 54.9174C37.6458 54.7484 37.7881 54.5789 37.9279 54.4079C38.0677 54.237 38.2048 54.0653 38.3397 53.8924C38.4744 53.7195 38.6071 53.5458 38.7366 53.3713C38.8665 53.197 38.9939 53.0214 39.1181 52.8455C39.2425 52.6698 39.364 52.4931 39.4828 52.316C39.6017 52.1387 39.7179 51.9609 39.8311 51.7827C39.9442 51.6046 40.0546 51.4253 40.1618 51.2467C40.2689 51.0674 40.3737 50.8882 40.475 50.7083C40.5768 50.5285 40.6745 50.3487 40.7696 50.1684C40.865 49.988 40.9563 49.8074 41.0451 49.627C41.134 49.4464 41.219 49.266 41.301 49.0854C41.3835 48.9048 41.4618 48.7241 41.537 48.544C41.612 48.3637 41.6845 48.1836 41.7528 48.0035C41.8214 47.8234 41.8857 47.6436 41.9472 47.4641C42.0083 47.2846 42.0657 47.105 42.1196 46.9263C42.1732 46.7479 42.2237 46.5698 42.2704 46.3919C42.2929 46.3031 42.3154 46.2143 42.3368 46.1258C42.3582 46.0372 42.3785 45.9485 42.3978 45.8603C42.4171 45.7716 42.4353 45.6838 42.4525 45.5958C42.4525 45.5796 42.4632 45.5627 42.4632 45.5464C41.0162 51.109 35.8894 54.9315 30.3073 54.9315C23.7094 54.9315 17.8306 49.6331 17.8306 42.3488V4.23876V3.76162C17.8305 3.75948 17.8303 3.75735 17.8301 3.75413C17.8119 3.63857 17.7839 3.52461 17.7474 3.41335C17.711 3.30195 17.6649 3.19364 17.6114 3.0893C17.5578 2.98503 17.4957 2.88493 17.4259 2.79018C17.3562 2.69534 17.2789 2.60626 17.1949 2.52347C17.1113 2.44073 17.0209 2.36453 16.9251 2.29571C16.8287 2.2268 16.7278 2.16552 16.6221 2.11233C16.5182 2.05982 16.409 2.01566 16.2974 1.97978L15.6703 1.87486L6.48926 0.339642C6.47854 0.339695 6.47012 0.339449 6.46048 0.339642L6.46126 0.336731Z" fill="white"/>
<path d="M55.5352 0.179949L46.037 1.61002L45.8701 1.63491C45.5128 1.64455 45.1628 1.73917 44.8489 1.9113C44.5047 2.11174 44.219 2.39998 44.0206 2.74711C43.8541 3.05924 43.7619 3.40615 43.7511 3.76042V4.01804V42.8071C43.7511 43.947 43.6084 45.0395 43.3453 46.0742C43.3453 46.0909 43.3345 46.1076 43.3345 46.1243C43.3174 46.2144 43.2981 46.3044 43.2788 46.3948C43.2595 46.485 43.2393 46.5755 43.2179 46.6662C43.1964 46.7566 43.1739 46.8474 43.1514 46.9381C43.1053 47.1199 43.0548 47.3016 43.0007 47.4842C42.9471 47.6668 42.8895 47.8503 42.8283 48.0337C42.7672 48.2172 42.7024 48.4009 42.6344 48.585C42.5658 48.769 42.4939 48.9536 42.4188 49.1376C42.3438 49.3219 42.2648 49.5059 42.1825 49.6905C42.1011 49.8751 42.0154 50.0594 41.9267 50.2437C41.8388 50.4283 41.7459 50.6129 41.6509 50.7972C41.5555 50.9815 41.4575 51.1653 41.3563 51.349C41.2555 51.5325 41.1508 51.7162 41.0433 51.8994C40.9362 52.0826 40.8261 52.2649 40.7126 52.4466C40.5996 52.629 40.4827 52.8107 40.3639 52.9919C40.245 53.1725 40.1236 53.3531 39.9991 53.5329C39.8746 53.7127 39.7479 53.8919 39.6182 54.0703C39.4884 54.2486 39.356 54.4261 39.2208 54.6027C39.086 54.7791 38.9488 54.9549 38.8089 55.1296C38.6692 55.304 38.5269 55.4775 38.3822 55.6502C38.2376 55.8226 38.091 55.9941 37.9416 56.1643C37.7924 56.3347 37.6411 56.5037 37.4874 56.6713C37.334 56.8388 37.1779 57.0053 37.0201 57.1703C36.8624 57.335 36.7022 57.4984 36.5402 57.6603C36.3783 57.8222 36.2147 57.983 36.0489 58.1417C35.883 58.3005 35.7155 58.4573 35.546 58.6127C35.3764 58.7681 35.2054 58.9218 35.0324 59.0738C34.8594 59.2255 34.6845 59.3755 34.5081 59.5238C34.332 59.6718 34.1536 59.8178 33.974 59.9621C33.7945 60.1062 33.6138 60.2485 33.4314 60.3883C33.2491 60.5281 33.0656 60.6656 32.8804 60.8012C32.6952 60.9367 32.5088 61.0694 32.321 61.2004C32.1331 61.3311 31.944 61.4598 31.7538 61.586C31.5636 61.7119 31.3724 61.8353 31.18 61.9566C30.9876 62.0777 30.7939 62.1962 30.5994 62.3119C30.4049 62.4276 30.2092 62.5405 30.0128 62.6508C29.8165 62.7611 29.6195 62.8688 29.4215 62.9737C29.2234 63.0783 29.0245 63.1804 28.8249 63.2794C28.6254 63.3781 28.4249 63.4739 28.2239 63.5669C28.0231 63.6596 27.8213 63.7492 27.6193 63.8354C27.4173 63.9219 27.2148 64.0059 27.0118 64.0858C26.8088 64.1658 26.6053 64.2426 26.4016 64.3158C26.1978 64.3892 25.9932 64.459 25.7888 64.5253C25.5845 64.592 25.3801 64.6552 25.1753 64.7144C25.0724 64.7442 24.9706 64.7732 24.8681 64.8012C24.7652 64.829 24.6633 64.856 24.5607 64.882C24.4578 64.9079 24.3553 64.9328 24.2527 64.9572C24.1499 64.9813 24.0479 65.0042 23.9453 65.0266C23.8424 65.049 23.7401 65.0706 23.6376 65.0907C23.5347 65.1111 23.4326 65.1304 23.3302 65.1488C23.2273 65.1672 23.1252 65.1848 23.0228 65.2012C22.9199 65.2177 22.8177 65.2329 22.7153 65.2477C22.6135 65.2622 22.5109 65.2758 22.4087 65.288C22.3069 65.3004 22.2039 65.3121 22.1018 65.3223C22 65.333 21.8981 65.3421 21.7962 65.3507C21.6944 65.3593 21.5921 65.366 21.4903 65.3722C21.3885 65.3787 21.2868 65.3841 21.1853 65.3881C21.0834 65.3924 20.9821 65.3945 20.8807 65.3967C20.7789 65.3988 20.6783 65.3999 20.5772 65.3999C20.4765 65.3999 20.3751 65.3978 20.2742 65.3956C20.1735 65.3935 20.0731 65.3902 19.9725 65.3849C19.8718 65.3806 19.7713 65.3742 19.6711 65.3676C19.5715 65.3612 19.4709 65.3532 19.371 65.344C19.2714 65.3355 19.1715 65.3242 19.072 65.3129C18.9723 65.3012 18.8731 65.2884 18.774 65.2748C18.6754 65.2609 18.576 65.2462 18.4773 65.23C18.3787 65.2138 18.2797 65.1966 18.1813 65.1781C18.0827 65.1594 17.9851 65.1399 17.8873 65.1189C17.7897 65.0979 17.6923 65.0752 17.595 65.052C17.4975 65.0284 17.3999 65.0043 17.303 64.9786C17.2066 64.9526 17.1098 64.9253 17.0134 64.8966C16.9169 64.8685 16.8206 64.8391 16.7248 64.8082C16.6283 64.7775 16.5337 64.7455 16.4385 64.7121C16.3432 64.6786 16.2486 64.6437 16.1539 64.6077C16.0596 64.5717 15.9649 64.5348 15.8708 64.496C15.7765 64.4574 15.6829 64.4179 15.5895 64.3766C15.4963 64.3354 15.4023 64.2932 15.3096 64.2493C15.2506 64.2215 15.1917 64.1917 15.1327 64.1625C19.5848 67.573 25.1707 69.5369 31.2297 69.5369C45.7366 69.5369 57.5367 58.2865 57.5367 42.8489V2.23175C57.5367 2.21278 57.526 2.1937 57.526 2.17484C57.526 2.15383 57.5153 2.13324 57.5132 2.11234C57.5132 2.09144 57.5023 2.07055 57.4991 2.04987C57.4991 2.02908 57.4884 2.00861 57.4841 1.98793C57.4734 1.96735 57.4722 1.94645 57.4669 1.92598C57.4562 1.90551 57.4552 1.88548 57.4488 1.86512C57.4381 1.84486 57.4359 1.82439 57.4284 1.80435C57.4177 1.78421 57.4145 1.7646 57.407 1.74467C57.3962 1.72473 57.3909 1.7047 57.3834 1.68498C57.3727 1.66526 57.3674 1.64584 57.3588 1.62634C57.3481 1.60683 57.3415 1.58702 57.3319 1.56773C57.3211 1.54844 57.3138 1.52925 57.3041 1.51017C57.2934 1.49109 57.2847 1.47257 57.2751 1.45382C57.2644 1.43506 57.2549 1.41597 57.2442 1.39743C57.2335 1.37889 57.2227 1.36098 57.212 1.34265C57.2013 1.32433 57.1895 1.30591 57.1788 1.2879C57.167 1.2699 57.1563 1.25243 57.1445 1.23486C57.1327 1.21717 57.1197 1.19969 57.1079 1.18233C57.0961 1.16497 57.0833 1.1474 57.0705 1.13036C57.0576 1.11332 57.0446 1.09672 57.0307 1.08C57.0179 1.06339 57.0041 1.04658 56.9902 1.03029C56.9762 1.01389 56.9622 0.997588 56.9483 0.98162C56.9344 0.965652 56.9204 0.949671 56.9054 0.934132C56.8904 0.918485 56.8764 0.903497 56.8614 0.888279C56.8464 0.873061 56.8314 0.857846 56.8164 0.84295C56.8014 0.828161 56.7854 0.813135 56.7704 0.798667C56.7543 0.784199 56.7394 0.770189 56.7233 0.75615C56.7072 0.742111 56.6912 0.728365 56.6751 0.714647C56.6591 0.701037 56.6418 0.687429 56.6257 0.674354C56.6085 0.661173 56.5926 0.647894 56.5755 0.635141C56.5583 0.62228 56.5411 0.609854 56.5229 0.59753C56.5057 0.585205 56.4874 0.572885 56.4703 0.561096C56.4521 0.5492 56.4349 0.537625 56.4166 0.526265C56.3984 0.514798 56.3804 0.503551 56.3622 0.492513C56.344 0.481582 56.3258 0.470857 56.3075 0.460462C56.2882 0.449745 56.27 0.440087 56.2518 0.430013C56.2336 0.420368 56.2143 0.410182 56.195 0.400644C56.1757 0.390999 56.1562 0.381487 56.138 0.372485C56.1187 0.363911 56.0995 0.355016 56.0802 0.34655C56.0609 0.337976 56.0406 0.329699 56.0213 0.321661C56.0009 0.314159 55.9817 0.305909 55.9624 0.298408C55.9421 0.290906 55.9226 0.283297 55.9023 0.276331C55.8819 0.26883 55.8617 0.262951 55.8413 0.256414C55.8209 0.249984 55.8004 0.243535 55.7801 0.237641C55.7597 0.231211 55.7395 0.225969 55.7181 0.220504C55.6977 0.215145 55.6761 0.209782 55.6558 0.205067C55.6354 0.199708 55.6142 0.195445 55.5927 0.191265C55.5724 0.186978 55.5529 0.18376 55.5326 0.179688L55.5352 0.179949ZM48.2338 3.6576C48.2344 3.66403 48.2338 3.6697 48.2338 3.67581C48.2333 3.66938 48.2338 3.6637 48.2338 3.6576ZM48.2338 3.69017C48.2338 3.69446 48.2341 3.69768 48.2343 3.70175C48.2341 3.69746 48.2338 3.69424 48.2338 3.69017ZM48.2445 3.84055C48.2448 3.84591 48.2447 3.85127 48.245 3.85599C48.2447 3.85063 48.2448 3.84526 48.2445 3.84055Z" fill="white"/>
<path d="M94.6069 45.2694L112.218 68.7088C113.129 69.9222 114.955 69.9064 115.846 68.6778L121.733 60.5579C122.314 59.7569 122.305 58.6708 121.711 57.8797L103.439 33.5608L94.6069 45.2694Z" fill="white"/>
<path d="M93.2113 19.9481L78.9814 1.00841C78.387 0.21716 77.3461 -0.0940337 76.4149 0.240814L66.9775 3.63513C65.5496 4.14881 65.0261 5.89791 65.9375 7.11137L84.3793 31.6567L88.08 26.7511L93.2113 19.9481Z" fill="white"/>
<path d="M75.3604 68.6766C74.4461 69.8882 72.6206 69.8692 71.7319 68.6386L65.8604 60.5076C65.2811 59.7057 65.2923 58.6197 65.8882 57.8294L88.7907 27.4689L108.727 1.04032C109.322 0.250345 110.364 -0.0588763 111.294 0.277794L120.725 3.69006C122.153 4.20646 122.672 5.95692 121.758 7.16862L75.3604 68.6766Z" fill="white"/>
<path d="M24.1325 104.445C29.3251 104.445 33.5736 100.22 33.5736 95.0609C33.5736 89.8573 29.3251 85.609 24.1438 85.609C18.9624 85.609 14.7252 89.8573 14.7252 95.0609C14.7252 100.22 18.9624 104.445 24.1325 104.445ZM24.1325 100.759C20.9743 100.759 18.4005 98.1853 18.4005 95.0384C18.4005 91.8691 20.9743 89.2841 24.1325 89.2841C27.302 89.2841 29.8871 91.8691 29.8871 95.0384C29.8871 98.1853 27.302 100.759 24.1325 100.759Z" fill="white"/>
<path d="M45.6922 85.6111L35.5866 85.6115H35.5751C35.5209 85.6116 35.4669 85.6187 35.4145 85.6325C35.361 85.6468 35.3096 85.6681 35.2617 85.6959C35.2136 85.7235 35.1694 85.7573 35.1302 85.7965C35.0911 85.8357 35.0572 85.8799 35.0296 85.9279C35.0019 85.9759 34.9806 86.0273 34.9662 86.0808C34.952 86.1343 34.9448 86.1894 34.9448 86.2447V103.808V103.828C34.9452 103.88 34.9519 103.931 34.9649 103.982C34.9793 104.035 35.0006 104.086 35.0283 104.134C35.056 104.182 35.0898 104.226 35.1289 104.266C35.1682 104.305 35.2124 104.338 35.2604 104.366C35.3083 104.394 35.3597 104.415 35.4132 104.429C35.4584 104.441 35.5046 104.447 35.5511 104.447H35.6033H38.0533H38.1252C38.1684 104.446 38.2113 104.441 38.2533 104.431C38.3068 104.416 38.3581 104.395 38.4061 104.367C38.454 104.34 38.498 104.306 38.5371 104.267C38.5763 104.228 38.6101 104.183 38.6377 104.135C38.6655 104.087 38.6868 104.036 38.7011 103.982C38.7102 103.943 38.7155 103.904 38.717 103.863V103.738V97.4704C38.7203 97.4394 38.7259 97.4088 38.7337 97.3787C38.7481 97.3254 38.7694 97.2741 38.797 97.2263C38.8247 97.1783 38.8585 97.1341 38.8977 97.0949C38.9369 97.0557 38.9811 97.0219 39.0291 96.9942C39.0771 96.9665 39.1285 96.9452 39.182 96.9309C39.2121 96.9235 39.2427 96.9184 39.2736 96.9155H44.5349H44.5863C44.6329 96.9144 44.6793 96.9082 44.7245 96.897C44.7781 96.8827 44.8294 96.8614 44.8774 96.8337C44.9253 96.806 44.9693 96.7722 45.0084 96.733C45.0475 96.694 45.0814 96.6499 45.109 96.602C45.1368 96.5541 45.1581 96.5027 45.1724 96.4492C45.1825 96.4071 45.1882 96.364 45.1895 96.3207V96.2137V93.8045V93.742C45.1894 93.739 45.1893 93.736 45.1891 93.733C45.1876 93.7146 45.1853 93.6964 45.1822 93.6782C45.179 93.66 45.175 93.642 45.1702 93.6242C45.1654 93.6065 45.1599 93.5889 45.1535 93.5716C45.1472 93.5541 45.14 93.537 45.1321 93.5201C45.1244 93.5035 45.116 93.4872 45.1069 93.4713C45.0976 93.4554 45.0876 93.4398 45.0769 93.4247C45.0664 93.4095 45.0553 93.3947 45.0435 93.3805C45.0317 93.3664 45.0192 93.3529 45.0062 93.3399C44.9931 93.3268 44.9794 93.3144 44.9651 93.3026C44.9511 93.2909 44.9365 93.2797 44.9215 93.2692C44.9063 93.2586 44.8908 93.2486 44.8748 93.2392C44.8589 93.2301 44.8426 93.2217 44.826 93.214C44.8092 93.2061 44.792 93.199 44.7746 93.1926C44.7573 93.1863 44.7397 93.1807 44.7219 93.1759C44.7041 93.1711 44.6861 93.1671 44.668 93.1639C44.6498 93.1607 44.6316 93.1583 44.6132 93.1567C44.6009 93.1559 44.5886 93.1553 44.5764 93.1552H44.5515H39.2915C39.2543 93.1526 39.2173 93.1467 39.1811 93.1376C39.1276 93.1233 39.0762 93.1019 39.0282 93.0742C38.9803 93.0466 38.9363 93.0127 38.8972 92.9736C38.8581 92.9345 38.8242 92.8905 38.7966 92.8426C38.7689 92.7947 38.7476 92.7433 38.7332 92.6898C38.7244 92.6529 38.719 92.6154 38.7169 92.5776V89.9329C38.7196 89.9006 38.7248 89.8685 38.7323 89.837C38.7467 89.7835 38.768 89.7321 38.7957 89.6842C38.8234 89.6363 38.8572 89.5922 38.8963 89.5532C38.9354 89.514 38.9795 89.4802 39.0274 89.4525C39.0753 89.4248 39.1267 89.4035 39.1802 89.3892C39.2195 89.3795 39.2597 89.3736 39.3001 89.3716H45.7217C45.733 89.3698 45.7443 89.3677 45.7555 89.3653C45.7714 89.3616 45.7871 89.3573 45.8026 89.3525C45.8184 89.3478 45.834 89.3425 45.8493 89.3366C45.8645 89.3305 45.8795 89.3238 45.8943 89.3166C45.9091 89.3095 45.9237 89.302 45.9379 89.2939C45.9521 89.2857 45.966 89.277 45.9795 89.2678C45.993 89.2585 46.0061 89.2488 46.0189 89.2387C46.0317 89.2284 46.0441 89.2177 46.0561 89.2065C46.0683 89.1953 46.08 89.1836 46.0912 89.1714C46.1024 89.1594 46.1131 89.147 46.1233 89.1341C46.1335 89.1213 46.1432 89.108 46.1525 89.0944C46.1617 89.0809 46.1704 89.067 46.1786 89.0528C46.1867 89.0386 46.1942 89.024 46.2013 89.0092C46.2084 88.9944 46.215 88.9795 46.221 88.9642C46.227 88.9489 46.2324 88.9333 46.2372 88.9176C46.2421 88.902 46.2464 88.8863 46.2501 88.8705C46.2538 88.8545 46.257 88.8383 46.2595 88.8221C46.26 88.8184 46.2604 88.8147 46.2608 88.8109V86.2001C46.2598 86.1879 46.2585 86.1758 46.2569 86.1637C46.2544 86.1474 46.2512 86.1313 46.2475 86.1153C46.2438 86.0994 46.2395 86.0837 46.2346 86.0682C46.2298 86.0525 46.2244 86.0369 46.2184 86.0216C46.2123 86.0063 46.2058 85.9913 46.1987 85.9766C46.1916 85.9618 46.1841 85.9472 46.176 85.933C46.1678 85.9188 46.1591 85.9049 46.1498 85.8914C46.1406 85.8778 46.1309 85.8645 46.1207 85.8516C46.1105 85.8388 46.0998 85.8264 46.0886 85.8144C46.0774 85.8024 46.0656 85.7908 46.0535 85.7797C46.0415 85.7686 46.0291 85.7578 46.0163 85.7476C46.0035 85.7374 45.9904 85.7277 45.9769 85.7185C45.9634 85.7091 45.9495 85.7003 45.9353 85.6919C45.9211 85.6838 45.9065 85.6762 45.8917 85.6692C45.8769 85.6621 45.8619 85.6555 45.8467 85.6495C45.8314 85.6435 45.8158 85.6381 45.8 85.6332C45.7845 85.6284 45.7688 85.6241 45.7529 85.6204C45.7369 85.6171 45.7208 85.6144 45.7046 85.6123C45.7004 85.6117 45.6963 85.6112 45.6921 85.6107L45.6922 85.6111Z" fill="white"/>
<path d="M48.0678 85.6107C48.0537 85.6129 48.0396 85.6155 48.0257 85.6186C48.0102 85.6222 47.9949 85.6263 47.9797 85.6311C47.9645 85.6357 47.9494 85.6409 47.9346 85.6466C47.9199 85.6525 47.9054 85.659 47.8912 85.666C47.8769 85.6727 47.8628 85.6801 47.849 85.6879C47.8354 85.6958 47.8221 85.7043 47.8091 85.7132C47.7958 85.7222 47.7829 85.7317 47.7704 85.7416C47.7581 85.7515 47.7462 85.7618 47.7347 85.7725C47.723 85.7833 47.7117 85.7945 47.7008 85.8061C47.69 85.8177 47.6797 85.8297 47.6698 85.8421C47.6599 85.8545 47.6504 85.8673 47.6414 85.8803C47.6326 85.8935 47.6243 85.907 47.6165 85.9208C47.6085 85.9345 47.6011 85.9485 47.5942 85.9628C47.5873 85.9771 47.581 85.9916 47.5753 86.0063C47.5694 86.0211 47.5641 86.0362 47.5594 86.0514C47.5547 86.0665 47.5505 86.0817 47.5469 86.097C47.5435 86.1125 47.5406 86.1281 47.5383 86.1438C47.5369 86.1542 47.5358 86.1647 47.5349 86.1752V86.3019V88.6793V88.7782C47.5364 88.8169 47.5414 88.8555 47.5499 88.8933C47.5643 88.947 47.5857 88.9986 47.6136 89.0468C47.6413 89.0948 47.6753 89.139 47.7145 89.1783C47.7539 89.2176 47.7983 89.2515 47.8465 89.2793C47.8945 89.307 47.9459 89.3284 47.9995 89.3429C48.0469 89.3547 48.0955 89.361 48.1443 89.3618H48.1838H51.6568C51.6664 89.3634 51.676 89.3652 51.6856 89.3673C51.7011 89.3709 51.7164 89.3751 51.7316 89.3798C51.7468 89.3844 51.7619 89.3896 51.7767 89.3953C51.7914 89.4012 51.8059 89.4076 51.8201 89.4146C51.8344 89.4214 51.8485 89.4287 51.8622 89.4365C51.8759 89.4445 51.8892 89.4529 51.9022 89.4619C51.9154 89.4708 51.9283 89.4803 51.9409 89.4902C51.9531 89.5001 51.965 89.5104 51.9765 89.5212C51.9883 89.5319 51.9996 89.5431 52.0105 89.5547C52.0213 89.5663 52.0316 89.5784 52.0414 89.5908C52.0514 89.6031 52.0608 89.6159 52.0698 89.629C52.0786 89.6421 52.0869 89.6556 52.0947 89.6694C52.1027 89.6832 52.1102 89.6972 52.1171 89.7116C52.1239 89.7258 52.1302 89.7403 52.136 89.755C52.1419 89.7698 52.1472 89.7848 52.1519 89.8001C52.1566 89.8151 52.1608 89.8303 52.1643 89.8456C52.1678 89.8611 52.1707 89.8768 52.1729 89.8925C52.1732 89.8951 52.1735 89.8977 52.1738 89.9004V103.806V103.819C52.1742 103.872 52.1812 103.925 52.1949 103.977C52.2091 104.031 52.2304 104.082 52.258 104.13C52.286 104.178 52.3201 104.223 52.3595 104.262C52.3987 104.301 52.4429 104.335 52.491 104.363C52.5391 104.391 52.5907 104.412 52.6444 104.426C52.696 104.44 52.7492 104.447 52.8026 104.447H52.8154H55.3309H55.3438C55.3972 104.447 55.4503 104.44 55.5019 104.426C55.5556 104.412 55.6072 104.391 55.6553 104.363C55.7034 104.335 55.7476 104.301 55.7869 104.262C55.8261 104.223 55.8601 104.178 55.8878 104.13C55.9157 104.082 55.9371 104.031 55.9515 103.977C55.9643 103.927 55.971 103.876 55.9716 103.825V103.775V89.9073C55.9742 89.8808 55.9783 89.8546 55.9841 89.8286C55.9985 89.7749 56.0199 89.7234 56.0477 89.6752C56.0755 89.6272 56.1095 89.583 56.1487 89.5437C56.1881 89.5044 56.2324 89.4705 56.2807 89.4427C56.3287 89.4149 56.3801 89.3936 56.4336 89.3791C56.4683 89.3704 56.5037 89.3647 56.5394 89.362H59.9165H60.0222C60.0598 89.3604 60.0972 89.3555 60.1339 89.3473C60.1876 89.3329 60.2392 89.3115 60.2874 89.2837C60.3354 89.2559 60.3796 89.222 60.4189 89.1827C60.4582 89.1434 60.4921 89.099 60.5199 89.0508C60.5477 89.0027 60.5691 88.9511 60.5835 88.8974C60.5923 88.8584 60.5975 88.8187 60.5989 88.7788V88.6481V86.2536V86.2158C60.5987 86.2066 60.5983 86.1974 60.5977 86.1882C60.5962 86.1698 60.5939 86.1515 60.5908 86.1332C60.5876 86.115 60.5836 86.097 60.5788 86.0791C60.5739 86.0613 60.5684 86.0437 60.562 86.0263C60.5556 86.0088 60.5484 85.9916 60.5405 85.9747C60.5328 85.958 60.5243 85.9417 60.5152 85.9258C60.5058 85.9097 60.4958 85.8941 60.4851 85.8789C60.4746 85.8637 60.4634 85.8489 60.4516 85.8346C60.4397 85.8205 60.4272 85.8069 60.4142 85.7938C60.4011 85.7808 60.3875 85.7683 60.3733 85.7564C60.3591 85.7446 60.3443 85.7334 60.3291 85.7229C60.3139 85.7122 60.2983 85.7021 60.2822 85.6928C60.2663 85.6836 60.2499 85.6752 60.2332 85.6674C60.2164 85.6595 60.1992 85.6523 60.1817 85.6459C60.1643 85.6395 60.1467 85.6339 60.1288 85.6291C60.1109 85.6243 60.0929 85.6203 60.0747 85.6171C60.0587 85.6144 60.0426 85.6123 60.0265 85.6108H59.9379H48.2676L48.0678 85.6107Z" fill="white"/>
<path d="M83.5034 85.6114L83.465 85.6154C83.4297 85.6163 83.3945 85.62 83.3598 85.6265L80.6554 85.9155L80.6411 85.917C80.5877 85.9176 80.5345 85.9246 80.4828 85.938C80.4271 85.953 80.3736 85.9751 80.3236 86.004C80.2736 86.0328 80.2276 86.068 80.1867 86.1088C80.146 86.1495 80.1108 86.1954 80.0819 86.2452C80.0583 86.288 80.0394 86.3333 80.0258 86.3803L80.0142 86.4173L77.1898 95.3571L73.594 86.9555L73.5494 86.8512C73.5397 86.833 73.5291 86.8153 73.5177 86.7981C73.5057 86.7801 73.4927 86.7627 73.479 86.746C73.4653 86.7294 73.4509 86.7135 73.4357 86.6983C73.4204 86.683 73.4043 86.6684 73.3875 86.6546C73.3708 86.641 73.3533 86.6282 73.3353 86.6163C73.3174 86.6042 73.299 86.593 73.28 86.5828C73.261 86.5726 73.2415 86.5634 73.2216 86.5551C73.2016 86.5468 73.1813 86.5395 73.1606 86.5333C73.1399 86.5271 73.1189 86.5219 73.0977 86.5177C73.0764 86.5135 73.055 86.5104 73.0334 86.5084C73.012 86.506 72.9904 86.5047 72.9688 86.5044C72.9111 86.5045 72.8537 86.5121 72.798 86.5271C72.7425 86.5421 72.6891 86.5643 72.6393 86.5931C72.5893 86.6219 72.5432 86.6571 72.5024 86.6979C72.4623 86.7381 72.4275 86.7834 72.3989 86.8325L72.3798 86.8767C72.3634 86.9078 72.3496 86.9401 72.3383 86.9734L68.7394 95.3688L65.9217 86.5815L65.8815 86.4558C65.8746 86.4396 65.867 86.4236 65.8588 86.4081C65.8486 86.3891 65.8374 86.3706 65.8253 86.3528C65.8134 86.3347 65.8006 86.3173 65.787 86.3006C65.7732 86.2838 65.7586 86.2677 65.7433 86.2524C65.7281 86.2372 65.7122 86.2227 65.6956 86.2091C65.6788 86.1953 65.6614 86.1824 65.6434 86.1704C65.6255 86.1585 65.6071 86.1475 65.5881 86.1374C65.569 86.1272 65.5493 86.1179 65.5293 86.1097C65.5094 86.1014 65.4892 86.0941 65.4686 86.0878C65.4516 86.0827 65.4343 86.0782 65.4169 86.0745L65.3246 86.0616L62.6094 85.6781L62.485 85.6594C62.473 85.6585 62.4609 85.658 62.4489 85.6578C62.3912 85.6577 62.3338 85.6652 62.2781 85.6801C62.2224 85.695 62.1689 85.7172 62.1189 85.7461C62.0689 85.7749 62.0229 85.8101 61.982 85.8509C61.9412 85.8917 61.906 85.9377 61.8772 85.9877C61.8484 86.0376 61.8262 86.0909 61.8112 86.1465C61.7964 86.2022 61.7889 86.2596 61.7889 86.3173C61.7897 86.3681 61.7962 86.4187 61.8086 86.468L61.8282 86.529C61.8317 86.5404 61.8356 86.5517 61.8398 86.5629C61.8392 86.5613 61.8381 86.5597 61.8376 86.5581L67.4226 103.92L67.4387 103.969C67.4516 104.012 67.4691 104.055 67.4908 104.095C67.5197 104.145 67.5549 104.19 67.5956 104.231C67.6365 104.272 67.6825 104.307 67.7325 104.336C67.7825 104.365 67.836 104.387 67.8917 104.402C67.9474 104.417 68.0048 104.425 68.0625 104.425C68.12 104.425 68.1773 104.417 68.2328 104.402C68.2885 104.387 68.3421 104.365 68.392 104.336C68.442 104.307 68.4881 104.272 68.5289 104.231C68.5685 104.191 68.6028 104.147 68.631 104.098L68.6457 104.066C68.6609 104.038 68.674 104.009 68.685 103.98C68.6851 103.979 68.6853 103.979 68.6854 103.978L72.922 94.6776L77.2371 104.01C77.2504 104.047 77.267 104.083 77.2866 104.117C77.3155 104.167 77.3507 104.213 77.3914 104.254C77.4321 104.294 77.478 104.33 77.5279 104.358C77.5778 104.387 77.6314 104.41 77.6871 104.424C77.7428 104.439 77.8002 104.447 77.8579 104.447C77.9155 104.447 77.973 104.439 78.0286 104.424C78.0844 104.409 78.1379 104.387 78.1878 104.358C78.2377 104.33 78.2836 104.294 78.3243 104.254C78.365 104.213 78.4003 104.167 78.4291 104.117C78.4555 104.071 78.4762 104.021 78.4906 103.969L78.4962 103.953L84.108 86.5084L84.1405 86.4076C84.1513 86.3624 84.1573 86.3162 84.1583 86.2698C84.1583 86.2697 84.1583 86.2695 84.1583 86.2694C84.1583 86.2692 84.1583 86.2691 84.1583 86.2689C84.1583 86.2688 84.1583 86.2686 84.1583 86.2685C84.1583 86.2683 84.1583 86.2682 84.1583 86.268C84.1583 86.2679 84.1583 86.2677 84.1583 86.2676C84.1583 86.2674 84.1583 86.2673 84.1583 86.2671C84.1583 86.267 84.1583 86.2668 84.1583 86.2667C84.1583 86.2665 84.1583 86.2664 84.1583 86.2662C84.1583 86.2661 84.1583 86.2659 84.1583 86.2658C84.1583 86.2656 84.1583 86.2655 84.1583 86.2653C84.1583 86.2652 84.1583 86.265 84.1583 86.2649C84.1583 86.2648 84.1583 86.2646 84.1583 86.2645C84.1583 86.2643 84.1583 86.2642 84.1583 86.264C84.1583 86.2639 84.1583 86.2637 84.1583 86.2636C84.1583 86.2634 84.1583 86.2633 84.1583 86.2631C84.1583 86.263 84.1583 86.2628 84.1583 86.2627C84.1583 86.2625 84.1583 86.2624 84.1583 86.2622C84.1583 86.2621 84.1583 86.2619 84.1583 86.2618C84.1583 86.2616 84.1583 86.2615 84.1583 86.2613C84.1583 86.2612 84.1583 86.261 84.1583 86.2609C84.1583 86.2607 84.1583 86.2606 84.1583 86.2604C84.1583 86.2603 84.1583 86.2601 84.1583 86.26C84.1583 86.2598 84.1583 86.2597 84.1583 86.2596C84.1583 86.2594 84.1583 86.2593 84.1583 86.2591C84.1583 86.259 84.1583 86.2588 84.1583 86.2587C84.1583 86.2585 84.1583 86.2584 84.1583 86.2582C84.1583 86.2581 84.1583 86.2579 84.1583 86.2578C84.1583 86.2576 84.1583 86.2575 84.1583 86.2573C84.1583 86.2572 84.1583 86.257 84.1583 86.2569C84.1583 86.2567 84.1583 86.2566 84.1583 86.2564C84.1583 86.2563 84.1583 86.2561 84.1583 86.256C84.1583 86.2558 84.1583 86.2557 84.1583 86.2555C84.1583 86.2554 84.1583 86.2552 84.1583 86.2551C84.1583 86.2549 84.1583 86.2548 84.1583 86.2546C84.1582 86.2531 84.158 86.2515 84.1579 86.2499C84.1579 86.2497 84.1579 86.2496 84.1579 86.2495C84.1579 86.2493 84.1579 86.2492 84.1579 86.249C84.1579 86.2489 84.1579 86.2487 84.1579 86.2486C84.1579 86.2484 84.1579 86.2483 84.1579 86.2481C84.1579 86.248 84.1579 86.2478 84.1579 86.2477C84.1579 86.2475 84.1579 86.2474 84.1579 86.2472C84.1579 86.2471 84.1579 86.2469 84.1579 86.2468C84.1579 86.2466 84.1579 86.2465 84.1579 86.2463C84.1579 86.2462 84.1579 86.246 84.1579 86.2459C84.1579 86.2457 84.1579 86.2456 84.1579 86.2455C84.1579 86.2453 84.1579 86.2452 84.1579 86.245C84.1579 86.2449 84.1579 86.2447 84.1579 86.2445C84.1579 86.2444 84.1579 86.2442 84.1579 86.2441C84.1579 86.244 84.1579 86.2438 84.1579 86.2437C84.1579 86.2435 84.1579 86.2434 84.1579 86.2432C84.1579 86.2431 84.1579 86.2429 84.1579 86.2428C84.1579 86.2426 84.1579 86.2425 84.1579 86.2423C84.1579 86.2422 84.1579 86.242 84.1579 86.2419C84.1579 86.2417 84.1579 86.2416 84.1579 86.2414C84.1579 86.2413 84.1579 86.2411 84.1579 86.241C84.1577 86.2397 84.1576 86.2384 84.1574 86.237C84.1574 86.2369 84.1574 86.2367 84.1574 86.2366C84.1574 86.2364 84.1574 86.2363 84.1574 86.2361C84.1574 86.236 84.1574 86.2358 84.1574 86.2357C84.1574 86.2356 84.1574 86.2354 84.1574 86.2353C84.1574 86.2351 84.1574 86.235 84.1574 86.2348C84.1574 86.2347 84.1574 86.2345 84.1574 86.2344C84.1574 86.2342 84.1574 86.2341 84.1574 86.2339C84.1574 86.2338 84.1574 86.2336 84.1574 86.2335C84.1574 86.2333 84.1574 86.2332 84.1574 86.233C84.1573 86.2314 84.1572 86.2299 84.157 86.2283C84.1569 86.227 84.1567 86.2256 84.1566 86.2243C84.1566 86.2242 84.1566 86.224 84.1566 86.2239C84.1566 86.2237 84.1566 86.2236 84.1566 86.2234C84.1566 86.2233 84.1566 86.2231 84.1566 86.223C84.1566 86.2228 84.1566 86.2227 84.1566 86.2225C84.1566 86.2224 84.1566 86.2222 84.1566 86.2221C84.1566 86.2219 84.1566 86.2218 84.1566 86.2217C84.1566 86.2215 84.1566 86.2214 84.1566 86.2212C84.1566 86.2211 84.1566 86.2209 84.1566 86.2208C84.1566 86.2206 84.1566 86.2205 84.1566 86.2203C84.1564 86.219 84.1563 86.2177 84.1561 86.2164C84.156 86.2148 84.1558 86.2132 84.1557 86.2116C84.1555 86.2103 84.1554 86.209 84.1552 86.2077C84.1552 86.2075 84.1552 86.2074 84.1552 86.2072C84.1552 86.2071 84.1552 86.2069 84.1552 86.2068C84.1552 86.2066 84.1552 86.2065 84.1552 86.2063C84.1552 86.2062 84.1552 86.206 84.1552 86.2059C84.1531 86.1845 84.15 86.1632 84.1459 86.1421C84.1416 86.1209 84.1362 86.0999 84.1298 86.0792C84.1237 86.0585 84.1165 86.0382 84.1084 86.0182C84.1 85.9983 84.0906 85.9788 84.0803 85.9598C84.0702 85.9407 84.0592 85.9221 84.0473 85.904C84.0352 85.8862 84.0223 85.8689 84.0086 85.8523C83.9949 85.8355 83.9805 85.8194 83.9653 85.8041C83.95 85.7888 83.9339 85.7742 83.9171 85.7604C83.9005 85.7468 83.8832 85.734 83.8654 85.7221C83.8473 85.71 83.8287 85.6989 83.8096 85.6886C83.7906 85.6785 83.7711 85.6693 83.7512 85.661C83.7312 85.6527 83.7109 85.6455 83.6902 85.6392C83.6695 85.633 83.6485 85.6278 83.6273 85.6236C83.6062 85.6195 83.5849 85.6163 83.5635 85.6143C83.5436 85.6126 83.5237 85.6118 83.5038 85.6119L83.5034 85.6114ZM61.9819 86.7846C61.9847 86.7873 61.9875 86.79 61.9904 86.7926C61.9877 86.7903 61.9846 86.7879 61.9819 86.7847V86.7846ZM62.9152 86.7846V86.785C62.9125 86.7874 62.9094 86.7898 62.9067 86.7929C62.9096 86.7903 62.9124 86.7876 62.9152 86.7849V86.7846ZM62.1085 86.8827C62.1119 86.8848 62.1154 86.8869 62.1188 86.889C62.1219 86.8909 62.125 86.8927 62.1282 86.8945C62.1251 86.893 62.1218 86.8914 62.1188 86.8898C62.1152 86.8874 62.1121 86.885 62.1085 86.8827ZM62.7886 86.8827C62.785 86.885 62.7819 86.8874 62.7783 86.8898C62.7752 86.8914 62.7721 86.893 62.7689 86.8945C62.7721 86.8927 62.7752 86.8909 62.7783 86.889C62.7817 86.8869 62.7852 86.8848 62.7886 86.8827ZM62.2659 86.9518C62.2699 86.9532 62.274 86.9545 62.278 86.9558C62.2817 86.9566 62.2854 86.9574 62.2891 86.9581C62.2854 86.9573 62.2816 86.9566 62.278 86.9558C62.2739 86.955 62.27 86.9526 62.2659 86.9518ZM62.6311 86.9518C62.627 86.9526 62.6232 86.955 62.6191 86.9558C62.6153 86.9566 62.6114 86.9573 62.6075 86.9581C62.6114 86.9574 62.6153 86.9566 62.6191 86.9558C62.6231 86.9545 62.6271 86.9532 62.6311 86.9518ZM68.7187 103.701C68.7189 103.702 68.719 103.702 68.7192 103.703C68.719 103.703 68.7189 103.703 68.7187 103.703C68.7187 103.702 68.7187 103.702 68.7187 103.702V103.701ZM68.7203 103.717C68.7205 103.718 68.7206 103.719 68.7208 103.72C68.7206 103.72 68.7205 103.72 68.7203 103.719C68.7203 103.719 68.7203 103.718 68.7203 103.718V103.717ZM68.7219 103.783C68.7218 103.785 68.7216 103.786 68.7215 103.788C68.7216 103.786 68.7218 103.785 68.7219 103.783ZM68.7203 103.81C68.7202 103.811 68.72 103.812 68.7199 103.814C68.72 103.812 68.7202 103.811 68.7203 103.81ZM68.7199 103.817C68.7197 103.818 68.7196 103.82 68.7194 103.821C68.7196 103.82 68.7197 103.818 68.7199 103.817ZM68.7175 103.843C68.7174 103.844 68.7172 103.845 68.7171 103.847C68.7172 103.845 68.7174 103.844 68.7175 103.843ZM68.7128 103.873C68.7126 103.874 68.7125 103.876 68.7123 103.877C68.7125 103.876 68.7126 103.874 68.7128 103.873ZM68.7104 103.886C68.7099 103.889 68.7094 103.892 68.7088 103.894C68.7094 103.892 68.7099 103.889 68.7104 103.886Z" fill="white"/>
<path d="M89.2651 85.6117C89.2087 85.6116 89.1526 85.619 89.0981 85.6335C89.0437 85.6481 88.9914 85.6698 88.9425 85.698C88.8938 85.7262 88.849 85.7606 88.8092 85.8004C88.773 85.8373 88.7414 85.8785 88.715 85.9229L88.6806 85.9966C88.6747 86.0083 88.6692 86.0202 88.6641 86.0323L80.5298 103.484L80.4976 103.553C80.4816 103.584 80.4682 103.616 80.4575 103.65C80.4428 103.704 80.4354 103.76 80.4353 103.816C80.4354 103.873 80.4428 103.929 80.4575 103.983C80.4721 104.038 80.4938 104.09 80.522 104.139C80.5502 104.188 80.5846 104.233 80.6244 104.272C80.6642 104.312 80.7091 104.347 80.7578 104.375C80.8066 104.403 80.8589 104.425 80.9134 104.439C80.9297 104.442 80.9462 104.445 80.9627 104.446H81.1981H83.7579H83.8913C83.925 104.445 83.9585 104.44 83.9916 104.433C84.046 104.419 84.0984 104.397 84.1472 104.369C84.1959 104.341 84.2408 104.306 84.2806 104.266C84.3093 104.236 84.335 104.202 84.3573 104.167L84.4488 103.967L85.3402 102.02C85.3565 101.997 85.3743 101.975 85.3933 101.955C85.4331 101.915 85.478 101.881 85.5267 101.853C85.5756 101.824 85.6279 101.803 85.6823 101.788C85.6979 101.785 85.7136 101.782 85.7294 101.78H92.811C92.8268 101.782 92.8425 101.785 92.8581 101.788C92.9126 101.803 92.9649 101.824 93.0137 101.853C93.0624 101.881 93.1073 101.915 93.1471 101.955C93.1687 101.978 93.1887 102.002 93.2068 102.028L94.0981 103.994L94.1696 104.153C94.1727 104.158 94.1759 104.163 94.1792 104.168C94.1872 104.18 94.1955 104.191 94.2041 104.202C94.2128 104.214 94.2218 104.225 94.2311 104.235C94.2404 104.246 94.25 104.256 94.2599 104.266C94.2699 104.276 94.2802 104.286 94.2908 104.296C94.3015 104.305 94.3124 104.314 94.3236 104.323C94.3348 104.332 94.3463 104.34 94.358 104.348C94.3698 104.356 94.3819 104.363 94.3942 104.371C94.4064 104.378 94.4189 104.384 94.4316 104.391C94.4442 104.397 94.457 104.403 94.4699 104.408C94.483 104.414 94.4962 104.419 94.5096 104.423C94.5231 104.428 94.5367 104.432 94.5505 104.436C94.5619 104.438 94.5734 104.441 94.585 104.443C94.5957 104.444 94.6064 104.446 94.6172 104.447H94.819H97.3971H97.5218C97.557 104.445 97.592 104.44 97.6264 104.433C97.6809 104.418 97.7332 104.397 97.782 104.369C97.8309 104.341 97.8759 104.306 97.9158 104.266C97.9556 104.226 97.9901 104.181 98.0183 104.133C98.0465 104.084 98.0682 104.031 98.0828 103.977C98.0973 103.923 98.1046 103.866 98.1046 103.81C98.1046 103.81 98.1046 103.81 98.1046 103.81C98.1046 103.809 98.1046 103.809 98.1046 103.809C98.1046 103.809 98.1046 103.809 98.1046 103.809C98.1046 103.809 98.1046 103.808 98.1046 103.808C98.1046 103.808 98.1046 103.808 98.1046 103.808C98.1046 103.808 98.1046 103.808 98.1046 103.807C98.1046 103.807 98.1046 103.807 98.1046 103.807C98.1046 103.807 98.1046 103.807 98.1046 103.807C98.1046 103.806 98.1046 103.806 98.1046 103.806C98.1046 103.806 98.1046 103.806 98.1046 103.806C98.1046 103.806 98.1046 103.805 98.1046 103.805C98.1046 103.805 98.1046 103.805 98.1046 103.805C98.1046 103.805 98.1046 103.805 98.1046 103.804C98.1046 103.804 98.1046 103.804 98.1046 103.804C98.1046 103.804 98.1046 103.804 98.1046 103.803C98.1046 103.803 98.1046 103.803 98.1046 103.803C98.1046 103.803 98.1046 103.803 98.1046 103.803C98.1046 103.802 98.1046 103.802 98.1046 103.802C98.1046 103.802 98.1046 103.802 98.1046 103.802C98.1046 103.802 98.1046 103.801 98.1046 103.801C98.1046 103.801 98.1046 103.801 98.1046 103.801C98.1046 103.801 98.1046 103.801 98.1046 103.8C98.1046 103.8 98.1046 103.8 98.1046 103.8C98.1046 103.8 98.1046 103.8 98.1046 103.8C98.1046 103.799 98.1046 103.799 98.1046 103.799C98.1046 103.799 98.1046 103.799 98.1046 103.799C98.1046 103.799 98.1046 103.798 98.1046 103.798C98.1046 103.798 98.1046 103.798 98.1046 103.798C98.1046 103.798 98.1046 103.798 98.1046 103.797C98.1046 103.797 98.1046 103.797 98.1046 103.797C98.1046 103.797 98.1046 103.797 98.1046 103.797C98.1046 103.796 98.1046 103.796 98.1046 103.796C98.1046 103.796 98.1046 103.796 98.1046 103.796C98.1046 103.795 98.1046 103.795 98.1046 103.795C98.1046 103.795 98.1046 103.795 98.1046 103.795C98.1046 103.795 98.1046 103.794 98.1046 103.794C98.1046 103.794 98.1046 103.794 98.1046 103.794C98.1046 103.794 98.1046 103.794 98.1046 103.793C98.1046 103.793 98.1046 103.793 98.1046 103.793C98.1046 103.793 98.1046 103.793 98.1046 103.793C98.1044 103.792 98.1043 103.791 98.1041 103.79C98.1041 103.79 98.1041 103.79 98.1041 103.79C98.1041 103.79 98.1041 103.79 98.1041 103.789C98.1041 103.789 98.1041 103.789 98.1041 103.789C98.1041 103.789 98.1041 103.789 98.1041 103.788C98.1041 103.788 98.1041 103.788 98.1041 103.788C98.1041 103.788 98.1041 103.788 98.1041 103.788C98.1041 103.787 98.1041 103.787 98.1041 103.787C98.1041 103.787 98.1041 103.787 98.1041 103.787C98.1041 103.787 98.1041 103.786 98.1041 103.786C98.1041 103.786 98.1041 103.786 98.1041 103.786C98.1041 103.786 98.1041 103.786 98.1041 103.785C98.1041 103.785 98.1041 103.785 98.1041 103.785C98.1041 103.785 98.1041 103.785 98.1041 103.785C98.1041 103.784 98.1041 103.784 98.1041 103.784C98.1041 103.784 98.1041 103.784 98.1041 103.784C98.1041 103.784 98.1041 103.783 98.1041 103.783C98.1041 103.783 98.1041 103.783 98.1041 103.783C98.1041 103.783 98.1041 103.783 98.1041 103.782C98.1041 103.782 98.1041 103.782 98.1041 103.782C98.1041 103.782 98.1041 103.782 98.1041 103.782C98.1041 103.781 98.1041 103.781 98.1041 103.781C98.1041 103.781 98.1041 103.781 98.1041 103.781C98.104 103.78 98.1038 103.779 98.1037 103.778C98.1037 103.778 98.1037 103.778 98.1037 103.778C98.1037 103.778 98.1037 103.778 98.1037 103.777C98.1037 103.777 98.1037 103.777 98.1037 103.777C98.1037 103.777 98.1037 103.777 98.1037 103.777C98.1037 103.776 98.1037 103.776 98.1037 103.776C98.1037 103.776 98.1037 103.776 98.1037 103.776C98.1037 103.776 98.1037 103.775 98.1037 103.775C98.1037 103.775 98.1037 103.775 98.1037 103.775C98.1037 103.775 98.1037 103.774 98.1037 103.774C98.1037 103.774 98.1037 103.774 98.1037 103.774C98.1037 103.774 98.1037 103.774 98.1037 103.773C98.1037 103.773 98.1037 103.773 98.1037 103.773C98.1037 103.773 98.1037 103.773 98.1037 103.773C98.1037 103.772 98.1037 103.772 98.1037 103.772C98.1037 103.772 98.1037 103.772 98.1037 103.772C98.1036 103.771 98.1034 103.77 98.1033 103.769C98.1033 103.769 98.1033 103.769 98.1033 103.769C98.1033 103.769 98.1033 103.769 98.1033 103.768C98.1033 103.768 98.1033 103.768 98.1033 103.768C98.1033 103.768 98.1033 103.768 98.1033 103.768C98.1033 103.767 98.1033 103.767 98.1033 103.767C98.1033 103.767 98.1033 103.767 98.1033 103.767C98.1033 103.767 98.1033 103.766 98.1033 103.766C98.1033 103.766 98.1033 103.766 98.1033 103.766C98.1033 103.766 98.1033 103.766 98.1033 103.765C98.1033 103.765 98.1033 103.765 98.1033 103.765C98.1031 103.764 98.103 103.763 98.1028 103.762C98.1028 103.762 98.1028 103.762 98.1028 103.761C98.1028 103.761 98.1028 103.761 98.1028 103.761C98.1028 103.761 98.1028 103.761 98.1028 103.761C98.1028 103.76 98.1028 103.76 98.1028 103.76C98.1028 103.76 98.1028 103.76 98.1028 103.76C98.1027 103.759 98.1025 103.758 98.1024 103.757C98.1024 103.757 98.1024 103.757 98.1024 103.757C98.1024 103.757 98.1024 103.757 98.1024 103.756C98.1024 103.756 98.1024 103.756 98.1024 103.756C98.1024 103.756 98.1024 103.756 98.1024 103.756C98.1024 103.755 98.1024 103.755 98.1024 103.755C98.1024 103.755 98.1024 103.755 98.1024 103.755C98.1024 103.755 98.1024 103.754 98.1024 103.754C98.1024 103.754 98.1024 103.754 98.1024 103.754C98.1024 103.754 98.1024 103.754 98.1024 103.753C98.1024 103.753 98.1024 103.753 98.1024 103.753C98.1022 103.752 98.1021 103.751 98.1019 103.751C98.1019 103.75 98.1019 103.75 98.1019 103.75C98.1019 103.75 98.1019 103.75 98.1019 103.75C98.1 103.73 98.0972 103.71 98.0935 103.69C98.0897 103.671 98.0851 103.651 98.0796 103.632C98.0771 103.624 98.0744 103.617 98.0716 103.609L98.0041 103.465L89.8703 86.0364L89.8215 85.9318C89.8151 85.9202 89.8084 85.9089 89.8014 85.8978C89.7896 85.8803 89.7769 85.8634 89.7634 85.8472C89.7501 85.8309 89.736 85.8151 89.7212 85.8002C89.7062 85.7852 89.6905 85.7709 89.6741 85.7574C89.6577 85.7441 89.6407 85.7317 89.6231 85.72C89.6056 85.7083 89.5875 85.6974 89.569 85.6874C89.5503 85.6774 89.5311 85.6684 89.5115 85.6604C89.492 85.6523 89.4722 85.6452 89.4521 85.639C89.4319 85.6329 89.4114 85.6278 89.3907 85.6238C89.3699 85.6197 89.349 85.6166 89.3279 85.6146C89.3069 85.6125 89.2858 85.6114 89.2647 85.6114L89.2651 85.6117ZM89.2777 93.4005L89.2817 93.4092L89.2738 93.4087L89.2777 93.4005ZM89.2762 94.1523C89.2948 94.1523 89.3134 94.1534 89.3319 94.1555C89.3505 94.1575 89.3689 94.1605 89.3872 94.1646C89.4054 94.1687 89.4235 94.1738 89.4413 94.1798C89.459 94.186 89.4764 94.1931 89.4935 94.2012C89.5109 94.2092 89.528 94.2182 89.5446 94.2282C89.5609 94.2382 89.5767 94.2491 89.592 94.2609C89.6075 94.2726 89.6225 94.285 89.6369 94.2983C89.6513 94.3118 89.6651 94.326 89.6783 94.341C89.6914 94.356 89.7039 94.3717 89.7157 94.388C89.7276 94.4043 89.7388 94.4211 89.7492 94.4386C89.75 94.4402 89.7508 94.4418 89.7516 94.4433L91.2209 97.6743C91.2237 97.6819 91.2263 97.6894 91.2288 97.697C91.2344 97.7161 91.239 97.7355 91.2428 97.755C91.2465 97.7747 91.2493 97.7945 91.2512 97.8144C91.2512 97.8145 91.2512 97.8146 91.2512 97.8148C91.2512 97.8149 91.2512 97.8151 91.2512 97.8152C91.2512 97.8154 91.2512 97.8155 91.2512 97.8157C91.2512 97.8158 91.2512 97.8159 91.2512 97.8161C91.2512 97.8162 91.2512 97.8164 91.2512 97.8165C91.2514 97.8171 91.2515 97.8176 91.2517 97.8181C91.2517 97.8183 91.2517 97.8184 91.2517 97.8186C91.2517 97.8187 91.2517 97.8188 91.2517 97.819C91.2517 97.8191 91.2517 97.8193 91.2517 97.8194C91.2517 97.8196 91.2517 97.8197 91.2517 97.8199C91.2517 97.82 91.2517 97.8202 91.2517 97.8203C91.2517 97.8204 91.2517 97.8206 91.2517 97.8207C91.2517 97.8209 91.2517 97.821 91.2517 97.8212C91.2517 97.8213 91.2517 97.8215 91.2517 97.8216C91.2517 97.8217 91.2517 97.8219 91.2517 97.822C91.2517 97.8222 91.2517 97.8223 91.2517 97.8225C91.2518 97.8226 91.2519 97.8228 91.2521 97.8229C91.2521 97.8231 91.2521 97.8232 91.2521 97.8233C91.2521 97.8235 91.2521 97.8236 91.2521 97.8238C91.2521 97.8239 91.2521 97.8241 91.2521 97.8242C91.2521 97.8244 91.2521 97.8245 91.2521 97.8246C91.2521 97.8248 91.2521 97.8249 91.2521 97.8251C91.2521 97.8252 91.2521 97.8254 91.2521 97.8255C91.2521 97.8257 91.2521 97.8258 91.2521 97.826C91.2521 97.8261 91.2521 97.8263 91.2521 97.8264C91.2521 97.8265 91.2521 97.8267 91.2521 97.8268C91.2521 97.827 91.2521 97.8271 91.2521 97.8273C91.2521 97.8274 91.2521 97.8276 91.2521 97.8277C91.2521 97.8278 91.2521 97.828 91.2521 97.8281C91.2521 97.8283 91.2521 97.8284 91.2521 97.8286C91.2521 97.8287 91.2521 97.8289 91.2521 97.829C91.2522 97.8295 91.2524 97.8301 91.2525 97.8306C91.2525 97.8307 91.2525 97.8309 91.2525 97.831C91.2525 97.8312 91.2525 97.8313 91.2525 97.8315C91.2525 97.8316 91.2525 97.8318 91.2525 97.8319C91.2525 97.832 91.2525 97.8322 91.2525 97.8323C91.2525 97.8325 91.2525 97.8326 91.2525 97.8328C91.2525 97.8329 91.2525 97.8331 91.2525 97.8332C91.2525 97.8334 91.2525 97.8335 91.2525 97.8337C91.2525 97.8338 91.2525 97.8339 91.2525 97.8341C91.2525 97.8342 91.2525 97.8344 91.2525 97.8345C91.2525 97.8347 91.2525 97.8348 91.2525 97.835C91.2525 97.8351 91.2525 97.8352 91.2525 97.8354C91.2527 97.8359 91.2528 97.8364 91.253 97.837C91.253 97.8371 91.253 97.8373 91.253 97.8374C91.253 97.8376 91.253 97.8377 91.253 97.8379C91.253 97.838 91.253 97.8381 91.253 97.8383C91.253 97.8384 91.253 97.8386 91.253 97.8387C91.253 97.8389 91.253 97.839 91.253 97.8392C91.253 97.8393 91.253 97.8394 91.253 97.8396C91.253 97.8397 91.253 97.8399 91.253 97.84C91.253 97.8402 91.253 97.8403 91.253 97.8405C91.253 97.8406 91.253 97.8408 91.253 97.8409C91.253 97.841 91.253 97.8412 91.253 97.8413C91.253 97.8415 91.253 97.8416 91.253 97.8418C91.253 97.8419 91.253 97.8421 91.253 97.8422C91.253 97.8424 91.253 97.8425 91.253 97.8426C91.253 97.8428 91.253 97.8429 91.253 97.8431C91.253 97.8432 91.253 97.8434 91.253 97.8435C91.253 97.8437 91.253 97.8438 91.253 97.8439C91.253 97.8441 91.253 97.8442 91.253 97.8444C91.253 97.8445 91.253 97.8447 91.253 97.8448C91.2531 97.8454 91.2533 97.8459 91.2534 97.8464C91.2534 97.8466 91.2534 97.8467 91.2534 97.8468C91.2534 97.847 91.2534 97.8471 91.2534 97.8473C91.2534 97.8474 91.2534 97.8476 91.2534 97.8477C91.2534 97.8479 91.2534 97.848 91.2534 97.8481C91.2534 97.8483 91.2534 97.8484 91.2534 97.8486C91.2534 97.8487 91.2534 97.8489 91.2534 97.849C91.2534 97.8492 91.2534 97.8493 91.2534 97.8495C91.2534 97.8496 91.2534 97.8497 91.2534 97.8499C91.2534 97.85 91.2534 97.8502 91.2534 97.8503C91.2534 97.8505 91.2534 97.8506 91.2534 97.8508C91.2534 97.8509 91.2534 97.8511 91.2534 97.8512C91.2534 97.8513 91.2534 97.8515 91.2534 97.8516C91.2534 97.8518 91.2534 97.8519 91.2534 97.8521C91.2534 97.8522 91.2534 97.8524 91.2534 97.8525C91.2534 97.8527 91.2534 97.8528 91.2534 97.8529C91.2534 97.8531 91.2534 97.8532 91.2534 97.8534C91.2534 97.8535 91.2534 97.8537 91.2534 97.8538C91.2534 97.854 91.2534 97.8541 91.2534 97.8543C91.2534 97.8544 91.2534 97.8545 91.2534 97.8547C91.2534 97.8548 91.2534 97.855 91.2534 97.8551C91.2534 97.8553 91.2534 97.8554 91.2534 97.8556C91.2534 97.8557 91.2534 97.8558 91.2534 97.856C91.2534 97.8561 91.2534 97.8563 91.2534 97.8564C91.2534 97.8566 91.2534 97.8567 91.2534 97.8569C91.2534 97.857 91.2534 97.8572 91.2534 97.8573C91.2534 97.8575 91.2534 97.8576 91.2534 97.8577C91.2534 97.8579 91.2534 97.858 91.2534 97.8582C91.2534 97.8583 91.2534 97.8585 91.2534 97.8586C91.2534 97.8588 91.2534 97.8589 91.2534 97.859C91.2534 97.8592 91.2534 97.8593 91.2534 97.8595C91.2534 97.8596 91.2534 97.8598 91.2534 97.8599C91.2534 97.8601 91.2534 97.8602 91.2534 97.8603C91.2535 97.8609 91.2537 97.8614 91.2538 97.8619C91.2538 97.8621 91.2538 97.8622 91.2538 97.8624C91.2538 97.8625 91.2538 97.8627 91.2538 97.8628C91.2538 97.8629 91.2538 97.8631 91.2538 97.8632C91.2538 97.8634 91.2538 97.8635 91.2538 97.8637C91.2538 97.8638 91.2538 97.864 91.2538 97.8641C91.2538 97.8642 91.2538 97.8644 91.2538 97.8645C91.2538 97.8647 91.2538 97.8648 91.2538 97.865C91.2538 97.8651 91.2538 97.8653 91.2538 97.8654C91.2538 97.8656 91.2538 97.8657 91.2538 97.8659C91.2538 97.866 91.2538 97.8661 91.2538 97.8663C91.2538 97.8664 91.2538 97.8666 91.2538 97.8667C91.2538 97.8669 91.2538 97.867 91.2538 97.8672C91.2538 97.8673 91.2538 97.8675 91.2538 97.8676C91.2538 97.8677 91.2538 97.8679 91.2538 97.868C91.2538 97.8682 91.2538 97.8683 91.2538 97.8685C91.2538 97.8686 91.2538 97.8688 91.2538 97.8689C91.2538 97.8691 91.2538 97.8692 91.2538 97.8693C91.2538 97.8695 91.2538 97.8696 91.2538 97.8698C91.2538 97.8699 91.2538 97.8701 91.2538 97.8702C91.2538 97.8704 91.2538 97.8705 91.2538 97.8706C91.2538 97.8708 91.2538 97.8709 91.2538 97.8711C91.2538 97.8712 91.2538 97.8714 91.2538 97.8715C91.2538 97.8717 91.2538 97.8718 91.2538 97.872C91.2538 97.8721 91.2538 97.8723 91.2538 97.8724C91.2538 97.8725 91.2538 97.8727 91.2538 97.8728C91.2538 97.873 91.2538 97.8731 91.2538 97.8733C91.2538 97.8734 91.2538 97.8736 91.2538 97.8737C91.2538 97.8738 91.2538 97.874 91.2538 97.8741C91.2538 97.8743 91.2538 97.8744 91.2538 97.8746C91.2538 97.8747 91.2538 97.8749 91.2538 97.875C91.2539 97.9314 91.2466 97.9875 91.2321 98.0419C91.2175 98.0964 91.1958 98.1487 91.1675 98.1975C91.1393 98.2463 91.1049 98.2911 91.0651 98.3309C91.0252 98.3709 90.9802 98.4055 90.9313 98.4338C90.8824 98.4618 90.8301 98.4834 90.7757 98.4978C90.7526 98.5029 90.7293 98.5067 90.7059 98.5092H87.7145C87.6755 98.4958 87.6378 98.4787 87.6021 98.4581C87.5533 98.43 87.5085 98.3955 87.4687 98.3557C87.4289 98.3159 87.3944 98.2711 87.3663 98.2223C87.338 98.1735 87.3163 98.1212 87.3017 98.0667C87.2871 98.0123 87.2796 97.9562 87.2796 97.8998C87.2796 97.8434 87.2871 97.7873 87.3017 97.7329C87.3069 97.717 87.3128 97.7012 87.3192 97.6858L88.7942 94.4587C88.8169 94.4164 88.8438 94.3772 88.8744 94.3419C88.9095 94.3021 88.9491 94.2677 88.9921 94.2395C89.035 94.2113 89.0811 94.1896 89.129 94.1749C89.177 94.1604 89.2265 94.1531 89.2763 94.1532L89.2762 94.1523Z" fill="white"/>
<path d="M99.9192 85.609C99.8633 85.6091 99.8077 85.6167 99.7537 85.6314C99.6997 85.646 99.6478 85.6676 99.5994 85.6958C99.5511 85.7238 99.5066 85.7581 99.4671 85.7977C99.4276 85.8374 99.3935 85.8822 99.3656 85.9309C99.3376 85.9796 99.3161 86.0317 99.3016 86.086C99.2876 86.1393 99.2805 86.1942 99.2805 86.2493V86.2557L99.2913 103.728V103.895C99.2931 103.923 99.2967 103.95 99.302 103.977C99.3166 104.032 99.3381 104.084 99.3661 104.132C99.394 104.181 99.4281 104.226 99.4675 104.265C99.507 104.305 99.5515 104.34 99.5999 104.368C99.6483 104.396 99.7002 104.417 99.7542 104.432C99.7883 104.439 99.8229 104.444 99.8578 104.446H99.9815H102.376H102.513C102.546 104.444 102.578 104.44 102.61 104.433C102.664 104.418 102.716 104.397 102.764 104.369C102.813 104.34 102.857 104.306 102.897 104.266C102.936 104.226 102.97 104.182 102.998 104.133C103.026 104.085 103.048 104.032 103.062 103.978C103.063 103.975 103.064 103.973 103.064 103.97C103.065 103.968 103.066 103.965 103.066 103.963C103.067 103.961 103.067 103.958 103.068 103.956C103.068 103.953 103.069 103.951 103.069 103.948C103.07 103.946 103.07 103.943 103.071 103.941C103.071 103.938 103.072 103.936 103.072 103.933C103.073 103.931 103.073 103.928 103.074 103.926C103.075 103.923 103.075 103.921 103.076 103.918C103.076 103.916 103.077 103.913 103.077 103.911C103.078 103.908 103.078 103.906 103.079 103.903C103.079 103.902 103.079 103.9 103.079 103.899V103.729V95.5416L108.861 104.13L108.872 104.146C108.898 104.19 108.929 104.231 108.965 104.267C109.004 104.307 109.049 104.342 109.097 104.37C109.145 104.398 109.197 104.42 109.251 104.434C109.28 104.44 109.309 104.444 109.338 104.446H109.495H112.375H112.563C112.587 104.444 112.611 104.441 112.635 104.436C112.689 104.422 112.74 104.4 112.789 104.372C112.837 104.344 112.882 104.31 112.922 104.27C112.961 104.23 112.995 104.185 113.023 104.137C113.051 104.088 113.073 104.036 113.087 103.982C113.088 103.979 113.088 103.977 113.089 103.974C113.09 103.972 113.09 103.969 113.091 103.966C113.092 103.964 113.092 103.962 113.093 103.959C113.093 103.957 113.094 103.955 113.094 103.952C113.095 103.95 113.095 103.947 113.096 103.944C113.096 103.942 113.097 103.94 113.097 103.937C113.098 103.935 113.099 103.932 113.099 103.929C113.1 103.927 113.1 103.925 113.101 103.922C113.101 103.92 113.102 103.917 113.102 103.914C113.102 103.912 113.103 103.91 113.103 103.907C113.104 103.905 113.104 103.902 113.105 103.899C113.105 103.897 113.105 103.894 113.105 103.891C113.106 103.889 113.106 103.887 113.106 103.884C113.106 103.882 113.107 103.879 113.107 103.876C113.107 103.874 113.107 103.871 113.107 103.868C113.108 103.866 113.108 103.863 113.108 103.86C113.108 103.858 113.108 103.856 113.109 103.853C113.109 103.851 113.109 103.848 113.109 103.845C113.109 103.845 113.109 103.845 113.109 103.845C113.109 103.845 113.109 103.845 113.109 103.845C113.109 103.844 113.109 103.844 113.109 103.844C113.109 103.844 113.109 103.844 113.109 103.844C113.109 103.844 113.109 103.843 113.109 103.843C113.109 103.843 113.109 103.843 113.109 103.843C113.109 103.843 113.109 103.843 113.109 103.842C113.109 103.842 113.109 103.842 113.109 103.842C113.109 103.842 113.109 103.842 113.109 103.842C113.109 103.841 113.109 103.841 113.109 103.841C113.109 103.841 113.109 103.841 113.109 103.841C113.109 103.841 113.109 103.84 113.109 103.84C113.109 103.84 113.109 103.84 113.109 103.84C113.109 103.84 113.109 103.84 113.109 103.839C113.109 103.839 113.109 103.839 113.109 103.839C113.109 103.839 113.109 103.839 113.109 103.839C113.109 103.838 113.109 103.838 113.109 103.838C113.109 103.838 113.109 103.838 113.109 103.838C113.109 103.835 113.109 103.832 113.109 103.83C113.109 103.83 113.109 103.83 113.109 103.829C113.109 103.829 113.109 103.829 113.109 103.829C113.109 103.829 113.109 103.829 113.109 103.829C113.109 103.828 113.109 103.828 113.109 103.828C113.109 103.828 113.109 103.828 113.109 103.828C113.109 103.828 113.109 103.827 113.109 103.827C113.109 103.827 113.109 103.827 113.109 103.827C113.109 103.827 113.109 103.827 113.109 103.826C113.109 103.826 113.109 103.826 113.109 103.826C113.109 103.826 113.109 103.826 113.109 103.826C113.109 103.825 113.109 103.825 113.109 103.825C113.109 103.825 113.109 103.825 113.109 103.825C113.109 103.825 113.109 103.824 113.109 103.824C113.109 103.824 113.109 103.824 113.109 103.824C113.109 103.824 113.109 103.824 113.109 103.823C113.109 103.823 113.109 103.823 113.109 103.823C113.109 103.823 113.109 103.823 113.109 103.823C113.109 103.822 113.109 103.822 113.109 103.822C113.109 103.822 113.109 103.822 113.109 103.822C113.109 103.822 113.109 103.821 113.109 103.821C113.109 103.821 113.109 103.821 113.109 103.821C113.109 103.821 113.109 103.82 113.109 103.82C113.109 103.82 113.109 103.82 113.109 103.82C113.109 103.82 113.109 103.82 113.109 103.819C113.109 103.819 113.109 103.819 113.109 103.819C113.109 103.819 113.109 103.819 113.109 103.819C113.109 103.818 113.109 103.818 113.109 103.818C113.109 103.818 113.109 103.818 113.109 103.818C113.109 103.818 113.109 103.817 113.109 103.817C113.109 103.817 113.109 103.817 113.109 103.817C113.109 103.817 113.109 103.817 113.109 103.816C113.109 103.816 113.109 103.816 113.109 103.816C113.109 103.816 113.109 103.816 113.109 103.816C113.109 103.815 113.109 103.815 113.109 103.815C113.109 103.815 113.109 103.815 113.109 103.815C113.109 103.815 113.109 103.814 113.109 103.814C113.109 103.814 113.109 103.814 113.109 103.814C113.109 103.814 113.109 103.814 113.109 103.813C113.109 103.813 113.109 103.813 113.109 103.813C113.109 103.813 113.109 103.813 113.109 103.813C113.109 103.812 113.109 103.812 113.109 103.812C113.109 103.812 113.109 103.812 113.109 103.812C113.109 103.812 113.109 103.811 113.109 103.811C113.109 103.811 113.109 103.811 113.109 103.811C113.109 103.811 113.109 103.811 113.109 103.81C113.109 103.81 113.109 103.81 113.109 103.81C113.109 103.81 113.109 103.81 113.109 103.81C113.109 103.809 113.109 103.809 113.109 103.809C113.109 103.809 113.109 103.809 113.109 103.809C113.109 103.809 113.109 103.808 113.109 103.808C113.109 103.808 113.109 103.808 113.109 103.808C113.109 103.808 113.109 103.808 113.109 103.807C113.109 103.807 113.109 103.807 113.109 103.807C113.109 103.807 113.109 103.807 113.109 103.807C113.109 103.806 113.109 103.806 113.109 103.806C113.109 103.806 113.109 103.806 113.109 103.806C113.109 103.806 113.109 103.805 113.109 103.805C113.109 103.805 113.109 103.805 113.109 103.805C113.109 103.805 113.109 103.805 113.109 103.804C113.109 103.804 113.109 103.804 113.109 103.804C113.109 103.804 113.109 103.804 113.109 103.804C113.109 103.803 113.109 103.803 113.109 103.803C113.109 103.803 113.109 103.803 113.109 103.803C113.109 103.803 113.109 103.802 113.109 103.802C113.109 103.802 113.109 103.802 113.109 103.802C113.109 103.802 113.109 103.802 113.109 103.801C113.109 103.801 113.109 103.801 113.109 103.801C113.109 103.801 113.109 103.801 113.109 103.801C113.109 103.8 113.109 103.8 113.109 103.8C113.109 103.8 113.109 103.8 113.109 103.8C113.109 103.8 113.109 103.799 113.109 103.799C113.109 103.799 113.109 103.799 113.109 103.799C113.109 103.799 113.109 103.799 113.109 103.798C113.109 103.798 113.109 103.798 113.109 103.798C113.109 103.798 113.109 103.798 113.109 103.798C113.109 103.797 113.109 103.797 113.109 103.797C113.109 103.797 113.109 103.797 113.109 103.797C113.109 103.797 113.109 103.796 113.109 103.796C113.109 103.796 113.109 103.796 113.109 103.796C113.109 103.796 113.109 103.796 113.109 103.795C113.109 103.795 113.109 103.795 113.109 103.795C113.109 103.795 113.109 103.795 113.109 103.795C113.109 103.794 113.109 103.794 113.109 103.794C113.109 103.793 113.109 103.793 113.109 103.792C113.109 103.792 113.109 103.791 113.109 103.791C113.109 103.791 113.109 103.791 113.109 103.791C113.109 103.791 113.109 103.791 113.109 103.79C113.109 103.79 113.109 103.79 113.109 103.79C113.109 103.79 113.109 103.79 113.109 103.79C113.109 103.789 113.109 103.789 113.109 103.789C113.109 103.789 113.109 103.789 113.109 103.789C113.109 103.789 113.109 103.788 113.109 103.788C113.109 103.788 113.109 103.788 113.109 103.788C113.109 103.788 113.109 103.788 113.109 103.787C113.109 103.787 113.109 103.787 113.109 103.787C113.109 103.787 113.109 103.787 113.109 103.787C113.109 103.786 113.109 103.786 113.109 103.786C113.109 103.786 113.109 103.786 113.109 103.786C113.109 103.786 113.109 103.785 113.109 103.785C113.109 103.785 113.109 103.785 113.109 103.785C113.109 103.785 113.109 103.785 113.109 103.784C113.109 103.784 113.109 103.784 113.109 103.784C113.109 103.783 113.109 103.782 113.109 103.782C113.109 103.782 113.109 103.781 113.109 103.781C113.109 103.781 113.109 103.781 113.109 103.781C113.109 103.781 113.109 103.781 113.109 103.78C113.109 103.78 113.109 103.78 113.109 103.78C113.109 103.78 113.109 103.78 113.109 103.78C113.109 103.779 113.109 103.779 113.109 103.779C113.109 103.779 113.109 103.779 113.109 103.779C113.109 103.779 113.109 103.778 113.109 103.778C113.109 103.778 113.109 103.778 113.109 103.778C113.109 103.778 113.109 103.778 113.109 103.777C113.109 103.777 113.109 103.777 113.109 103.777C113.109 103.777 113.109 103.777 113.109 103.777C113.108 103.776 113.108 103.775 113.108 103.774C113.108 103.774 113.108 103.774 113.108 103.774C113.108 103.774 113.108 103.773 113.108 103.773C113.108 103.773 113.108 103.773 113.108 103.773C113.108 103.773 113.108 103.773 113.108 103.772C113.108 103.772 113.108 103.772 113.108 103.772C113.108 103.772 113.108 103.772 113.108 103.772C113.108 103.771 113.108 103.771 113.108 103.771C113.108 103.771 113.108 103.771 113.108 103.771C113.108 103.771 113.108 103.77 113.108 103.77C113.108 103.77 113.108 103.77 113.108 103.77C113.108 103.77 113.108 103.77 113.108 103.769C113.108 103.769 113.108 103.769 113.108 103.769C113.108 103.768 113.108 103.767 113.108 103.767C113.108 103.766 113.108 103.766 113.108 103.766C113.108 103.766 113.108 103.766 113.108 103.766C113.108 103.766 113.108 103.765 113.108 103.765C113.108 103.765 113.108 103.765 113.108 103.765C113.108 103.765 113.108 103.765 113.108 103.764C113.108 103.764 113.108 103.764 113.108 103.764C113.108 103.763 113.107 103.762 113.107 103.762C113.107 103.762 113.107 103.761 113.107 103.761C113.107 103.761 113.107 103.761 113.107 103.761C113.107 103.761 113.107 103.76 113.107 103.76C113.107 103.76 113.107 103.76 113.107 103.76C113.107 103.76 113.107 103.76 113.107 103.76C113.107 103.759 113.107 103.759 113.107 103.759C113.107 103.758 113.107 103.757 113.107 103.757C113.105 103.737 113.102 103.717 113.099 103.697C113.095 103.678 113.09 103.659 113.085 103.64C113.083 103.632 113.08 103.624 113.077 103.616L113.018 103.49L112.939 103.379L108.35 96.9563C110.371 96.2436 111.832 94.1282 111.832 91.7095C111.832 88.3208 108.946 85.61 105.429 85.61L99.9192 85.609ZM103.576 89.3599H105.497C106.77 89.3599 107.927 90.3883 107.927 91.7321C107.927 93.0758 106.782 94.1155 105.497 94.1038L103.527 94.0944C103.525 94.0939 103.522 94.0934 103.52 94.0928C103.466 94.0784 103.414 94.0569 103.366 94.0289C103.317 94.0006 103.273 93.9661 103.233 93.9261C103.194 93.8865 103.16 93.8419 103.132 93.7934C103.104 93.7447 103.082 93.6925 103.068 93.6382C103.067 93.6341 103.066 93.6299 103.065 93.6257V89.8422C103.067 89.8369 103.068 89.8316 103.069 89.8263C103.084 89.772 103.105 89.7198 103.133 89.6712C103.161 89.6225 103.195 89.5777 103.235 89.5379C103.274 89.4983 103.319 89.4641 103.367 89.4361C103.416 89.4079 103.467 89.3862 103.521 89.3716C103.539 89.3668 103.558 89.3628 103.576 89.3596L103.576 89.3599Z" fill="white"/>
<path d="M114.843 85.612C114.807 85.6138 114.772 85.6186 114.738 85.6262C114.684 85.6406 114.632 85.6622 114.583 85.6902C114.535 85.7183 114.49 85.7527 114.451 85.7925C114.412 85.8322 114.377 85.877 114.35 85.9257C114.322 85.9743 114.3 86.0265 114.286 86.0808C114.277 86.1202 114.271 86.1603 114.27 86.2007V86.2935V103.809C114.27 103.865 114.277 103.921 114.292 103.975C114.306 104.029 114.328 104.08 114.356 104.129C114.384 104.177 114.418 104.221 114.457 104.261C114.497 104.301 114.541 104.335 114.59 104.363C114.638 104.391 114.69 104.412 114.744 104.426C114.798 104.441 114.853 104.448 114.909 104.448H124.989C125.045 104.448 125.1 104.441 125.154 104.426C125.208 104.412 125.26 104.391 125.308 104.363C125.357 104.335 125.401 104.301 125.44 104.261C125.48 104.221 125.514 104.177 125.542 104.129C125.57 104.08 125.592 104.029 125.606 103.975C125.62 103.921 125.628 103.865 125.628 103.809V101.36V101.283C125.628 101.28 125.628 101.278 125.627 101.275C125.627 101.27 125.626 101.264 125.626 101.259C125.625 101.253 125.624 101.248 125.623 101.242C125.623 101.237 125.622 101.231 125.621 101.226C125.62 101.221 125.619 101.215 125.618 101.21C125.617 101.204 125.616 101.199 125.615 101.193C125.614 101.188 125.613 101.183 125.612 101.178C125.61 101.172 125.609 101.167 125.608 101.162C125.606 101.156 125.605 101.151 125.604 101.146C125.602 101.14 125.601 101.135 125.599 101.13C125.597 101.125 125.595 101.12 125.593 101.114C125.592 101.109 125.59 101.104 125.588 101.099C125.586 101.094 125.584 101.089 125.582 101.083C125.58 101.078 125.577 101.073 125.575 101.068C125.573 101.063 125.571 101.058 125.568 101.053C125.566 101.048 125.563 101.044 125.561 101.039C125.559 101.034 125.556 101.029 125.554 101.024C125.551 101.019 125.548 101.014 125.546 101.009C125.543 101.005 125.54 101 125.538 100.995C125.535 100.991 125.532 100.986 125.529 100.981C125.526 100.976 125.523 100.972 125.52 100.967C125.517 100.963 125.514 100.958 125.511 100.954C125.507 100.95 125.504 100.945 125.501 100.941C125.498 100.936 125.494 100.932 125.491 100.928C125.487 100.924 125.484 100.919 125.48 100.915C125.477 100.911 125.473 100.907 125.47 100.903C125.466 100.898 125.463 100.894 125.459 100.89C125.455 100.886 125.451 100.882 125.447 100.878C125.443 100.874 125.44 100.87 125.436 100.866C125.432 100.863 125.428 100.859 125.424 100.855C125.42 100.851 125.416 100.848 125.412 100.844C125.408 100.841 125.403 100.837 125.399 100.834C125.395 100.83 125.391 100.827 125.386 100.823C125.382 100.82 125.378 100.816 125.373 100.813C125.369 100.81 125.365 100.807 125.36 100.803C125.356 100.8 125.351 100.797 125.346 100.794C125.342 100.791 125.337 100.788 125.333 100.785C125.328 100.782 125.323 100.779 125.319 100.777C125.314 100.774 125.309 100.771 125.305 100.768C125.3 100.765 125.295 100.763 125.29 100.76C125.285 100.757 125.28 100.755 125.275 100.752C125.27 100.75 125.266 100.747 125.261 100.745C125.256 100.743 125.251 100.74 125.246 100.738C125.241 100.736 125.235 100.734 125.23 100.732C125.225 100.729 125.22 100.727 125.215 100.725C125.21 100.723 125.205 100.722 125.2 100.72C125.194 100.718 125.189 100.716 125.184 100.714C125.179 100.713 125.173 100.711 125.168 100.709C125.163 100.708 125.158 100.706 125.152 100.705C125.147 100.703 125.142 100.702 125.136 100.701C125.131 100.7 125.126 100.699 125.12 100.698C125.115 100.696 125.11 100.695 125.104 100.694C125.099 100.694 125.093 100.693 125.088 100.692C125.083 100.691 125.077 100.69 125.072 100.69C125.066 100.689 125.061 100.688 125.055 100.687C125.05 100.687 125.044 100.686 125.039 100.686C125.034 100.685 125.028 100.685 125.023 100.684C125.017 100.684 125.011 100.684 125.006 100.684H124.977H118.554C118.544 100.682 118.535 100.68 118.526 100.677C118.508 100.673 118.49 100.667 118.473 100.661C118.455 100.654 118.438 100.647 118.422 100.639C118.405 100.631 118.388 100.623 118.372 100.613C118.356 100.604 118.34 100.594 118.325 100.583C118.31 100.573 118.295 100.561 118.281 100.549C118.266 100.537 118.253 100.525 118.239 100.512C118.226 100.499 118.214 100.485 118.202 100.471C118.19 100.456 118.179 100.442 118.168 100.426C118.157 100.411 118.147 100.396 118.138 100.379C118.129 100.363 118.12 100.347 118.112 100.33C118.104 100.313 118.097 100.296 118.091 100.278C118.084 100.261 118.079 100.243 118.074 100.225C118.069 100.207 118.065 100.189 118.062 100.171C118.059 100.154 118.056 100.137 118.055 100.119V97.3145C118.058 97.2961 118.062 97.2779 118.067 97.2599C118.072 97.2419 118.077 97.2241 118.084 97.2066C118.09 97.1893 118.097 97.1722 118.105 97.1555C118.113 97.1385 118.122 97.1219 118.131 97.1057C118.14 97.0896 118.15 97.074 118.161 97.0588C118.172 97.0436 118.183 97.0288 118.195 97.0146C118.207 97.0003 118.219 96.9865 118.232 96.9733C118.245 96.9603 118.259 96.9478 118.274 96.9359C118.288 96.9239 118.303 96.9126 118.318 96.902C118.333 96.8913 118.349 96.8812 118.365 96.8719C118.381 96.8626 118.397 96.854 118.414 96.8461C118.431 96.8382 118.448 96.831 118.466 96.8246C118.483 96.8182 118.501 96.8126 118.519 96.8078C118.537 96.803 118.555 96.799 118.574 96.7958C118.58 96.7947 118.586 96.7936 118.593 96.7927H123.868H123.964C123.979 96.7914 123.995 96.7895 124.011 96.7871C124.027 96.7847 124.042 96.7817 124.058 96.7781C124.073 96.7745 124.089 96.7704 124.104 96.7657C124.119 96.7611 124.134 96.7559 124.149 96.7502C124.164 96.7443 124.179 96.7378 124.193 96.7309C124.207 96.724 124.221 96.7165 124.235 96.7086C124.249 96.7006 124.262 96.6921 124.276 96.6832C124.289 96.6742 124.302 96.6647 124.314 96.6548C124.327 96.6448 124.339 96.6343 124.35 96.6234C124.362 96.6127 124.373 96.6015 124.384 96.5899C124.395 96.5781 124.405 96.5659 124.415 96.5534C124.425 96.541 124.435 96.5282 124.444 96.5151C124.453 96.5019 124.461 96.4884 124.469 96.4747C124.477 96.4607 124.485 96.4466 124.492 96.4321C124.499 96.4177 124.505 96.4031 124.511 96.3883C124.517 96.3735 124.522 96.3584 124.527 96.3432C124.531 96.328 124.535 96.3127 124.539 96.2972C124.542 96.2817 124.545 96.2661 124.548 96.2504C124.549 96.2383 124.551 96.2261 124.552 96.2139V96.0948V93.674C124.552 93.6739 124.552 93.6737 124.552 93.6736C124.552 93.6735 124.552 93.6733 124.552 93.6732C124.552 93.673 124.552 93.6729 124.552 93.6727C124.552 93.6726 124.552 93.6725 124.552 93.6723C124.552 93.6722 124.552 93.672 124.552 93.6719C124.552 93.6717 124.552 93.6716 124.552 93.6714C124.552 93.6713 124.552 93.6712 124.552 93.671C124.552 93.6709 124.552 93.6707 124.552 93.6706C124.552 93.6704 124.552 93.6703 124.552 93.6702C124.552 93.67 124.552 93.6699 124.552 93.6697C124.552 93.6696 124.552 93.6694 124.552 93.6693C124.552 93.6691 124.552 93.669 124.552 93.6689C124.552 93.6687 124.552 93.6686 124.552 93.6684C124.552 93.6683 124.552 93.6681 124.552 93.668C124.552 93.6679 124.552 93.6677 124.552 93.6676C124.552 93.6674 124.552 93.6673 124.552 93.6672C124.552 93.667 124.552 93.6669 124.552 93.6667C124.552 93.6666 124.552 93.6664 124.552 93.6663C124.552 93.6661 124.552 93.666 124.552 93.6659C124.552 93.6657 124.552 93.6656 124.552 93.6654C124.552 93.6653 124.552 93.6651 124.552 93.665C124.552 93.6649 124.552 93.6647 124.552 93.6646C124.552 93.6644 124.552 93.6643 124.552 93.6641C124.552 93.664 124.552 93.6639 124.552 93.6637C124.552 93.6636 124.552 93.6634 124.552 93.6633C124.552 93.6631 124.552 93.663 124.552 93.6628C124.552 93.6627 124.552 93.6626 124.552 93.6624C124.552 93.6623 124.552 93.6621 124.552 93.662C124.552 93.6618 124.552 93.6617 124.552 93.6616C124.552 93.6614 124.552 93.6613 124.552 93.6611C124.552 93.661 124.552 93.6609 124.552 93.6607C124.552 93.6606 124.552 93.6604 124.552 93.6603C124.552 93.6601 124.552 93.66 124.552 93.6598C124.552 93.6597 124.552 93.6596 124.552 93.6594C124.552 93.6593 124.552 93.6591 124.552 93.659C124.552 93.6588 124.552 93.6587 124.552 93.6586C124.552 93.6584 124.552 93.6583 124.552 93.6581C124.552 93.658 124.552 93.6578 124.552 93.6577C124.552 93.6576 124.552 93.6574 124.552 93.6573C124.552 93.6571 124.552 93.657 124.552 93.6568C124.552 93.6567 124.552 93.6566 124.552 93.6564C124.552 93.6563 124.552 93.6561 124.552 93.656C124.552 93.6558 124.552 93.6557 124.552 93.6555C124.552 93.6554 124.552 93.6553 124.552 93.6551C124.552 93.655 124.552 93.6548 124.552 93.6547C124.552 93.6545 124.552 93.6544 124.552 93.6543C124.552 93.6541 124.552 93.654 124.552 93.6538C124.552 93.6537 124.552 93.6535 124.552 93.6534C124.552 93.6533 124.552 93.6531 124.552 93.653C124.552 93.6528 124.552 93.6527 124.552 93.6525C124.552 93.6524 124.552 93.6523 124.552 93.6521C124.552 93.652 124.552 93.6518 124.552 93.6517C124.552 93.6515 124.552 93.6514 124.552 93.6512C124.552 93.6511 124.552 93.651 124.552 93.6508C124.552 93.6507 124.552 93.6505 124.552 93.6504C124.552 93.6502 124.552 93.6501 124.552 93.65C124.552 93.6498 124.552 93.6497 124.552 93.6495C124.552 93.6494 124.552 93.6492 124.552 93.6491C124.552 93.649 124.552 93.6488 124.552 93.6487C124.552 93.6485 124.552 93.6484 124.552 93.6482C124.552 93.6481 124.552 93.648 124.552 93.6478C124.552 93.6477 124.552 93.6475 124.552 93.6474C124.552 93.6472 124.552 93.6471 124.552 93.647C124.552 93.6468 124.552 93.6467 124.552 93.6465C124.552 93.6464 124.552 93.6462 124.552 93.6461C124.552 93.6459 124.552 93.6458 124.552 93.6457C124.552 93.6455 124.552 93.6454 124.552 93.6452C124.552 93.6451 124.552 93.6449 124.552 93.6448C124.552 93.6447 124.552 93.6445 124.552 93.6444C124.552 93.6442 124.552 93.6441 124.552 93.6439C124.552 93.6438 124.552 93.6437 124.552 93.6435C124.552 93.6434 124.552 93.6432 124.552 93.6431C124.552 93.6429 124.552 93.6428 124.552 93.6427C124.552 93.6425 124.552 93.6424 124.552 93.6422C124.552 93.6421 124.552 93.6419 124.552 93.6418C124.552 93.6417 124.552 93.6415 124.552 93.6414C124.552 93.6412 124.552 93.6411 124.552 93.6409C124.552 93.6408 124.552 93.6406 124.552 93.6405C124.552 93.6404 124.552 93.6402 124.552 93.6401C124.552 93.6399 124.552 93.6398 124.552 93.6396C124.552 93.6395 124.552 93.6394 124.552 93.6392C124.552 93.6391 124.552 93.6389 124.552 93.6388C124.552 93.6386 124.552 93.6385 124.552 93.6384C124.551 93.6376 124.551 93.6368 124.551 93.636C124.551 93.6358 124.551 93.6357 124.551 93.6355C124.551 93.6354 124.551 93.6353 124.551 93.6351C124.551 93.635 124.551 93.6348 124.551 93.6347C124.551 93.6345 124.551 93.6344 124.551 93.6343C124.551 93.6341 124.551 93.634 124.551 93.6338C124.551 93.6337 124.551 93.6335 124.551 93.6334C124.551 93.6333 124.551 93.6331 124.551 93.633C124.551 93.6328 124.551 93.6327 124.551 93.6325C124.551 93.6324 124.551 93.6322 124.551 93.6321C124.551 93.632 124.551 93.6318 124.551 93.6317C124.551 93.6315 124.551 93.6314 124.551 93.6313C124.551 93.6311 124.551 93.631 124.551 93.6308C124.551 93.6307 124.551 93.6305 124.551 93.6304C124.551 93.6303 124.551 93.6301 124.551 93.63C124.551 93.6298 124.551 93.6297 124.551 93.6295C124.551 93.6294 124.551 93.6292 124.551 93.6291C124.551 93.629 124.551 93.6288 124.551 93.6287C124.551 93.6285 124.551 93.6284 124.551 93.6282C124.551 93.6281 124.551 93.628 124.551 93.6278C124.551 93.6277 124.551 93.6275 124.551 93.6274C124.551 93.6272 124.551 93.6271 124.551 93.627C124.551 93.6268 124.551 93.6267 124.551 93.6265C124.551 93.6264 124.551 93.6262 124.551 93.6261C124.551 93.626 124.551 93.6258 124.551 93.6257C124.551 93.6251 124.551 93.6246 124.551 93.6241C124.551 93.6239 124.551 93.6238 124.551 93.6237C124.551 93.6235 124.551 93.6234 124.551 93.6232C124.551 93.6231 124.551 93.6229 124.551 93.6228C124.551 93.6226 124.551 93.6225 124.551 93.6224C124.551 93.6222 124.551 93.6221 124.551 93.6219C124.551 93.6218 124.551 93.6216 124.551 93.6215C124.551 93.6214 124.551 93.6212 124.551 93.6211C124.551 93.6209 124.551 93.6208 124.551 93.6206C124.551 93.6205 124.551 93.6204 124.551 93.6202C124.551 93.6201 124.551 93.6199 124.551 93.6198C124.551 93.6196 124.551 93.6195 124.551 93.6193C124.551 93.6192 124.551 93.6191 124.551 93.6189C124.551 93.6188 124.551 93.6186 124.551 93.6185C124.551 93.6184 124.551 93.6182 124.551 93.6181C124.551 93.6179 124.551 93.6178 124.551 93.6176C124.551 93.6175 124.551 93.6174 124.551 93.6172C124.551 93.6171 124.551 93.6169 124.551 93.6168C124.551 93.6166 124.551 93.6165 124.551 93.6164C124.551 93.6158 124.55 93.6153 124.55 93.6148C124.55 93.6146 124.55 93.6145 124.55 93.6143C124.55 93.6142 124.55 93.614 124.55 93.6139C124.55 93.6138 124.55 93.6136 124.55 93.6135C124.55 93.6133 124.55 93.6132 124.55 93.613C124.55 93.6129 124.55 93.6128 124.55 93.6126C124.55 93.6125 124.55 93.6123 124.55 93.6122C124.55 93.612 124.55 93.6119 124.55 93.6118C124.55 93.6116 124.55 93.6115 124.55 93.6113C124.55 93.6112 124.55 93.611 124.55 93.6109C124.55 93.6108 124.55 93.6106 124.55 93.6105C124.55 93.6103 124.55 93.6102 124.55 93.61C124.55 93.6099 124.55 93.6098 124.55 93.6096C124.55 93.6095 124.55 93.6093 124.55 93.6092C124.55 93.6087 124.55 93.6081 124.55 93.6076C124.55 93.6074 124.55 93.6073 124.55 93.6072C124.55 93.607 124.55 93.6069 124.55 93.6067C124.55 93.6066 124.55 93.6065 124.55 93.6063C124.55 93.6062 124.55 93.606 124.55 93.6059C124.55 93.6057 124.55 93.6056 124.55 93.6054C124.55 93.6053 124.55 93.6052 124.55 93.605C124.55 93.6049 124.55 93.6047 124.55 93.6046C124.55 93.6044 124.55 93.6043 124.55 93.6042C124.55 93.6034 124.55 93.6026 124.549 93.6018C124.549 93.6016 124.549 93.6015 124.549 93.6014C124.549 93.6012 124.549 93.6011 124.549 93.6009C124.549 93.6008 124.549 93.6006 124.549 93.6005C124.549 93.6003 124.549 93.6002 124.549 93.6001C124.549 93.5999 124.549 93.5998 124.549 93.5996C124.548 93.5812 124.545 93.5629 124.542 93.5447C124.539 93.5263 124.535 93.5081 124.53 93.4901C124.525 93.4721 124.52 93.4543 124.514 93.4368C124.507 93.4194 124.5 93.4023 124.492 93.3856C124.484 93.3686 124.476 93.352 124.466 93.3357C124.457 93.3197 124.447 93.3041 124.436 93.2889C124.425 93.2737 124.414 93.2589 124.402 93.2447C124.39 93.2304 124.378 93.2166 124.365 93.2034C124.352 93.1903 124.338 93.1779 124.324 93.166C124.309 93.154 124.295 93.1427 124.279 93.1321C124.264 93.1214 124.249 93.1113 124.233 93.102C124.216 93.0927 124.2 93.0841 124.183 93.0762C124.166 93.0683 124.149 93.0611 124.132 93.0547C124.114 93.0483 124.096 93.0427 124.078 93.0379C124.06 93.0331 124.042 93.0291 124.024 93.0259C124.005 93.0227 123.987 93.0204 123.969 93.0188C123.954 93.0177 123.939 93.0172 123.924 93.0172H123.909H118.56C118.547 93.0147 118.534 93.0119 118.522 93.0086C118.468 92.9942 118.416 92.9728 118.368 92.945C118.319 92.917 118.275 92.8827 118.235 92.8431C118.196 92.8037 118.162 92.7591 118.134 92.7108C118.106 92.6625 118.084 92.6107 118.07 92.5569C118.063 92.5322 118.058 92.5071 118.055 92.4817V89.898C118.056 89.8848 118.058 89.8716 118.06 89.8585C118.063 89.8401 118.067 89.8219 118.072 89.8039C118.077 89.7861 118.083 89.7684 118.089 89.7511C118.095 89.7336 118.102 89.7164 118.11 89.6995C118.118 89.6826 118.126 89.6661 118.136 89.65C118.145 89.6338 118.155 89.6181 118.166 89.6027C118.176 89.5875 118.188 89.5727 118.2 89.5584C118.212 89.5443 118.224 89.5307 118.237 89.5176C118.251 89.5044 118.264 89.4918 118.278 89.4798C118.293 89.4679 118.307 89.4565 118.323 89.4459C118.338 89.4352 118.354 89.4251 118.37 89.4158C118.386 89.4065 118.402 89.3979 118.419 89.39C118.436 89.3823 118.453 89.3752 118.471 89.369C118.488 89.3626 118.506 89.357 118.524 89.3522C118.542 89.3474 118.56 89.3434 118.578 89.3402C118.587 89.3387 118.595 89.3374 118.603 89.3362H124.981H124.994C125.048 89.3359 125.101 89.3289 125.153 89.3152C125.207 89.3008 125.258 89.2794 125.307 89.2516C125.355 89.2236 125.4 89.1893 125.439 89.1498C125.479 89.1103 125.513 89.0658 125.541 89.0174C125.569 88.9691 125.59 88.9174 125.605 88.8635C125.619 88.8096 125.626 88.754 125.626 88.6981V86.2476C125.626 86.2291 125.626 86.2106 125.624 86.1922C125.622 86.1736 125.62 86.1551 125.617 86.1367C125.614 86.1184 125.61 86.1002 125.605 86.0822C125.6 86.0643 125.594 86.0467 125.588 86.0293C125.582 86.0118 125.575 85.9946 125.567 85.9778C125.559 85.9609 125.551 85.9444 125.541 85.9283C125.532 85.9121 125.522 85.8963 125.511 85.881C125.501 85.8658 125.489 85.851 125.477 85.8367C125.465 85.8226 125.453 85.8089 125.44 85.7959C125.426 85.7827 125.413 85.7701 125.399 85.7581C125.384 85.7461 125.37 85.7348 125.354 85.7242C125.339 85.7134 125.323 85.7034 125.307 85.6941C125.291 85.6848 125.274 85.6762 125.258 85.6683C125.241 85.6605 125.224 85.6535 125.206 85.6473C125.189 85.6409 125.171 85.6353 125.153 85.6305C125.135 85.6257 125.117 85.6217 125.099 85.6185C125.08 85.6153 125.062 85.6129 125.043 85.6113C125.025 85.6098 125.006 85.609 124.988 85.609H114.995L114.843 85.612Z" fill="white"/>
<path d="M7.28192 85.6134C3.97726 85.6295 1.34848 87.6912 1.34848 90.8109C1.34848 93.6959 3.5824 94.807 5.61432 95.8173C7.51152 96.7602 9.67826 97.8042 9.67826 99.1288C9.67826 100.094 8.5333 100.791 6.82693 100.791C5.46017 100.791 4.4032 100.343 3.62632 99.3716C3.62601 99.3712 3.6258 99.3708 3.62552 99.37C3.6084 99.3541 3.59027 99.3389 3.57185 99.325C3.55062 99.3091 3.52894 99.2942 3.5062 99.2809C3.48349 99.2676 3.45996 99.2555 3.43601 99.2449C3.41199 99.2344 3.38745 99.2253 3.36252 99.2173C3.33759 99.2094 3.31213 99.203 3.28655 99.1983C3.26097 99.1935 3.23539 99.1904 3.20934 99.188C3.19631 99.1864 3.18316 99.1864 3.17012 99.1856C3.15708 99.1851 3.14397 99.1848 3.1309 99.1856C3.10463 99.1864 3.07854 99.1888 3.05245 99.1927C3.02654 99.1975 3.00048 99.2021 2.97483 99.2093C2.94919 99.2164 2.92382 99.2245 2.89886 99.2344C2.87384 99.2444 2.84944 99.2559 2.82537 99.2691L0.845624 100.66C0.828031 100.677 0.810778 100.694 0.795257 100.712C0.777949 100.733 0.762152 100.753 0.747367 100.775C0.732661 100.797 0.718975 100.82 0.706904 100.843C0.694848 100.866 0.684073 100.89 0.674699 100.914C0.665325 100.939 0.657304 100.963 0.650754 100.989C0.644189 101.014 0.639157 101.04 0.635479 101.065C0.631761 101.091 0.628913 101.117 0.628439 101.143C0.627173 101.17 0.627853 101.196 0.6301 101.222C0.632869 101.248 0.636428 101.275 0.641657 101.301C0.646957 101.327 0.653958 101.353 0.662304 101.378C0.670554 101.403 0.680277 101.428 0.691621 101.452C0.691683 101.452 0.691558 101.453 0.691621 101.453C1.94725 103.391 4.02709 104.449 6.77081 104.449C10.6438 104.449 13.338 102.35 13.338 99.0498C13.338 96.2658 11.4519 94.7391 8.45453 93.3246C6.3777 92.348 5.00824 91.9776 5.00824 90.8999C5.00824 89.9682 6.01856 89.1824 7.37692 89.1824C8.21796 89.1824 9.08239 89.4859 9.6593 90.2092C9.67378 90.2247 9.68862 90.24 9.7043 90.2538C9.72422 90.2714 9.74462 90.2874 9.76624 90.3025C9.78784 90.3176 9.81049 90.3319 9.83353 90.3442C9.85667 90.3566 9.8803 90.3675 9.90454 90.3773C9.92879 90.3869 9.95375 90.3948 9.97886 90.402C10.004 90.4092 10.0294 90.4138 10.0552 90.4186C10.0682 90.421 10.0811 90.4225 10.0941 90.4241C10.107 90.4257 10.1202 90.4265 10.1333 90.4273C10.1595 90.4289 10.1854 90.4281 10.2117 90.4265C10.2379 90.4241 10.2645 90.4202 10.2906 90.4157C10.3167 90.411 10.3425 90.4047 10.3682 90.3967C10.3931 90.3888 10.4179 90.3791 10.4421 90.3683L12.2216 89.1247C12.2389 89.1114 12.2559 89.0978 12.2716 89.083C12.2909 89.0648 12.309 89.0458 12.3261 89.0257C12.343 89.0055 12.3591 88.9843 12.3735 88.9625C12.388 88.9406 12.4013 88.918 12.4132 88.8948C12.4251 88.8715 12.4354 88.8477 12.4446 88.8234C12.4537 88.799 12.4617 88.7739 12.4681 88.7486C12.4746 88.7233 12.4802 88.6977 12.4834 88.6718C12.4874 88.6458 12.489 88.6197 12.4895 88.5933C12.4895 88.5671 12.489 88.5405 12.4866 88.5141C12.4842 88.4876 12.4798 88.461 12.4742 88.4348C12.4689 88.4101 12.4618 88.3857 12.4536 88.3613C11.532 86.4902 9.60964 85.6129 7.32069 85.6129C7.30771 85.6129 7.29484 85.6128 7.28188 85.6129L7.28192 85.6134Z" fill="white"/>
</svg>
